<svg width="19" height="18" viewBox="0 0 19 18" fill="none" xmlns="http://www.w3.org/2000/svg">
<g opacity="0.5">
<path d="M1.09124 15.6694C0.798346 15.9623 0.798346 16.4372 1.09124 16.73C1.38413 17.0229 1.85901 17.0229 2.1519 16.73L1.09124 15.6694ZM17.2335 1.64849C17.5263 1.3556 17.5263 0.880727 17.2335 0.587834C16.9406 0.294941 16.4657 0.294941 16.1728 0.587834L17.2335 1.64849ZM16.1728 0.587834L1.09124 15.6694L2.1519 16.73L17.2335 1.64849L16.1728 0.587834Z" fill="#A3A8AB"/>
<path d="M2.1519 0.588311C1.85901 0.295418 1.38413 0.295418 1.09124 0.588311C0.798345 0.881204 0.798345 1.35608 1.09124 1.64897L2.1519 0.588311ZM16.1728 16.7305C16.4657 17.0234 16.9406 17.0234 17.2335 16.7305C17.5263 16.4376 17.5263 15.9628 17.2335 15.6699L16.1728 16.7305ZM17.2335 15.6699L2.1519 0.588311L1.09124 1.64897L16.1728 16.7305L17.2335 15.6699Z" fill="#A3A8AB"/>
</g>
</svg>
