<svg width="426" height="182" viewBox="0 0 426 182" fill="none" xmlns="http://www.w3.org/2000/svg">
<path opacity="0.2" d="M48.3924 137.266C47.363 139.848 45.8148 140.968 44.291 140.329C44.0674 140.251 43.8622 140.126 43.6884 139.962C43.5146 139.798 43.376 139.599 43.2815 139.377C43.1869 139.155 43.1385 138.916 43.1393 138.674C43.14 138.432 43.19 138.193 43.2859 137.971C42.7732 138.366 42.1657 138.612 41.5279 138.682C40.8901 138.752 40.2457 138.644 39.6628 138.37C38.7024 137.907 37.9526 137.084 37.5686 136.071C37.1846 135.057 37.1959 133.931 37.6001 132.926C38.0043 131.921 38.7704 131.114 39.7399 130.672C40.7093 130.229 41.8078 130.186 42.8077 130.55C43.3984 130.774 43.9209 131.153 44.3223 131.65C44.7237 132.148 44.9897 132.744 45.0934 133.381L45.7095 131.845L46.674 132.252L44.3883 137.996C44.0478 138.826 44.3396 139.325 44.8422 139.532C45.7581 139.922 46.8199 139.009 47.6467 136.959C49.0732 133.397 47.5251 129.977 43.9425 128.466C40.3599 126.955 36.8502 128.383 35.3993 131.978C35.0356 132.781 34.8406 133.654 34.8267 134.54C34.8128 135.426 34.9805 136.304 35.3189 137.12C35.6573 137.935 36.1589 138.668 36.7912 139.272C37.4236 139.877 38.1726 140.338 38.99 140.628C39.9727 141.042 41.0338 141.223 42.0944 141.159L42.0458 141.989C40.8915 142.051 39.7386 141.844 38.6739 141.383C34.6212 139.673 33.0001 135.63 34.6212 131.613C36.2423 127.595 40.2059 125.959 44.291 127.678C48.3762 129.396 49.9891 133.298 48.3924 137.266ZM44.1856 135.689C44.3826 135.111 44.4101 134.487 44.2648 133.894C44.1195 133.301 43.8077 132.765 43.3679 132.351C42.9282 131.937 42.3798 131.665 41.7904 131.567C41.201 131.469 40.5965 131.55 40.0516 131.8C39.5067 132.05 39.0453 132.458 38.7243 132.974C38.4033 133.489 38.2369 134.09 38.2455 134.701C38.2542 135.313 38.4375 135.908 38.773 136.414C39.1084 136.92 39.5812 137.314 40.1329 137.548C40.5157 137.722 40.9301 137.812 41.3491 137.812C41.768 137.811 42.1821 137.72 42.5645 137.545C42.9468 137.369 43.2888 137.113 43.5681 136.793C43.8474 136.474 44.0578 136.097 44.1856 135.689Z" fill="#00A0E3"/>
<g opacity="0.2">
<path d="M387.869 7.50834L381.265 33.2086L419.396 43.0061L426 17.3059L387.869 7.50834Z" fill="#00A0E3"/>
<path d="M425.991 17.3056C425.862 17.4069 425.724 17.4948 425.578 17.5677L424.339 18.2746L419.764 20.7923L404.459 29.0602L404.316 29.1396L404.213 29.0046L403.467 28.0436L392.347 13.5648L389.02 9.15687L388.13 7.94965C388.022 7.80845 387.924 7.65983 387.836 7.50488C387.971 7.62263 388.091 7.75593 388.194 7.902L389.17 9.06951L392.594 13.398L403.768 27.7973L404.523 28.7742L404.285 28.7187L419.645 20.562L424.283 18.1396L425.546 17.5042C425.686 17.4203 425.835 17.3536 425.991 17.3056Z" fill="white"/>
<path d="M381.229 33.2063C381.158 33.1189 384.684 30.085 389.1 26.4236C393.516 22.7622 397.161 19.8633 397.233 19.9507C397.304 20.038 393.786 23.0799 389.362 26.7413C384.938 30.4027 381.332 33.2936 381.229 33.2063Z" fill="white"/>
<path d="M412.995 24.0719C413.106 24.0719 414.631 28.2416 416.41 33.4597C418.189 38.6777 419.532 42.9348 419.428 42.9904C419.325 43.046 417.76 38.8445 415.973 33.6026C414.186 28.3607 412.852 24.1434 412.995 24.0719Z" fill="white"/>
</g>
<g opacity="0.2">
<path d="M27.7312 0.725369L0.397217 14.1813L9.46838 32.6082L36.8023 19.1523L27.7312 0.725369Z" fill="#00A0E3"/>
<path d="M27.3293 0.633057C27.3063 0.758677 27.269 0.881253 27.2181 0.9984C27.1228 1.26049 27.0037 1.60201 26.8448 2.03089C26.5033 2.96014 26.0506 4.23884 25.4311 5.81935L20.6022 18.3919L20.5625 18.5031H20.4354L19.4982 18.3125L5.6946 15.3818L1.51697 14.4685L0.389169 14.1984C0.254873 14.1798 0.123867 14.1424 0 14.0872C0.133813 14.0934 0.26676 14.112 0.397113 14.1428L1.5408 14.3493L5.74225 15.1436L19.6015 17.9948L20.5387 18.1934L20.3639 18.2807C22.2939 13.3724 24.0174 8.96448 25.2802 5.74787L26.7495 1.99118C26.9242 1.57024 27.0672 1.19696 27.1705 0.974574C27.2119 0.85575 27.2652 0.741348 27.3293 0.633057Z" fill="white"/>
<path d="M9.07153 32.5125C9.32167 29.8474 9.70604 27.1966 10.2232 24.5703C10.6134 21.9126 11.1436 19.2774 11.8116 16.6757C11.9228 16.6757 11.3986 20.2576 10.652 24.6179C10.2582 27.2743 9.73065 29.9092 9.07153 32.5125Z" fill="white"/>
<path d="M23.1069 11.1968C25.4234 12.3233 27.677 13.5747 29.8579 14.9455C32.1134 16.1953 34.2982 17.5687 36.4023 19.0596C34.0868 17.9283 31.8333 16.6743 29.6514 15.3029C27.3997 14.0494 25.2152 12.6788 23.1069 11.1968Z" fill="white"/>
<path d="M76.0297 59.2868C76.0297 59.2868 76.0297 59.1359 75.9582 58.8579L75.7597 57.6269C75.6008 56.5388 75.3626 54.9583 75.0528 52.9489C74.4571 48.9063 73.6073 43.1164 72.5589 36.0636L72.7178 36.1828L38.2404 41.1626C38.2007 41.2023 38.5105 40.7972 38.3834 40.9719V41.0593V41.1546V41.3452L38.439 41.7344L38.5502 42.5286C38.6296 43.0449 38.7011 43.5611 38.7726 44.0694C38.9235 45.094 39.0664 46.1106 39.2094 47.1193C39.4953 49.1286 39.7812 51.0904 40.0592 53.0601C40.6152 56.9518 41.1473 60.6926 41.6477 64.2348L41.4729 64.0998L66.2925 60.6131L73.4405 59.6362L75.3387 59.3821L75.8311 59.3186H76.0059C76.0059 59.3186 75.9582 59.3186 75.855 59.3186L75.3784 59.398L73.5199 59.6839L66.4593 60.764L41.5524 64.4175H41.4015V64.2586C40.8932 60.7164 40.3531 56.9835 39.813 53.0918C39.5271 51.146 39.2491 49.1207 38.9552 47.151C38.8123 46.1424 38.6614 45.1257 38.5184 44.1012C38.4469 43.5929 38.3675 43.0766 38.296 42.5683L38.1848 41.7741L38.1293 41.3849V41.1943V41.099V41.0117C38.0022 41.1864 38.304 40.7734 38.2802 40.821L72.7654 35.9048H72.9004V36.0398C73.8932 43.1322 74.7033 48.9619 75.2831 53.0283C75.5532 55.0297 75.7676 56.6023 75.9185 57.6904C75.982 58.2066 76.0376 58.6117 76.0774 58.8976C76.1171 59.1835 76.0297 59.2868 76.0297 59.2868Z" fill="#263238"/>
<path d="M72.6937 36.0476C72.6251 36.1755 72.5425 36.2954 72.4475 36.405L71.6532 37.3978L68.7623 41.0115L59.0727 52.9646L58.9774 53.0758L58.8503 53.0043L57.9052 52.4643L43.9268 44.4187L39.7095 41.9408L38.5737 41.2577C38.4388 41.1784 38.3088 41.0909 38.1846 40.9956C38.3314 41.0471 38.4724 41.1136 38.6055 41.1942L39.773 41.8296L44.046 44.2123L58.072 52.1545L59.0251 52.6946H58.8027L68.5875 40.7812L71.55 37.2231L72.3442 36.2779C72.4537 36.1911 72.5707 36.114 72.6937 36.0476Z" fill="#263238"/>
<path d="M41.6127 64.4182C41.5174 64.3547 43.6459 60.725 46.3781 56.3012C49.1102 51.8774 51.3896 48.359 51.4849 48.4066C51.5802 48.4543 49.4517 52.0998 46.7196 56.5236C43.9874 60.9474 41.708 64.4738 41.6127 64.4182Z" fill="#263238"/>
<path d="M76.0324 59.2882C75.3322 58.8186 74.6756 58.2869 74.0706 57.6997C72.8952 56.6911 71.2908 55.3171 69.5277 53.7286C67.7645 52.1402 66.1919 50.6947 65.0641 49.6304C64.4235 49.0757 63.8261 48.473 63.2771 47.8275C63.9743 48.2978 64.6282 48.8294 65.2309 49.416C66.4063 50.4246 68.0186 51.7986 69.7818 53.3871C71.545 54.9755 73.1334 56.429 74.2612 57.5012C74.9019 58.0448 75.4945 58.6427 76.0324 59.2882Z" fill="#263238"/>
<path d="M170.375 21.8009L169.964 52.3679L215.311 52.9774L215.721 22.4104L170.375 21.8009Z" fill="#00A0E3"/>
<path d="M215.737 22.3964C215.618 22.5472 215.485 22.6856 215.339 22.8094L214.148 23.9849L209.708 28.0513L194.817 41.4579L194.682 41.577L194.531 41.4658L193.419 40.5683L177.074 27.3683L172.157 23.3336L170.831 22.2217C170.667 22.1017 170.518 21.9631 170.386 21.8087C170.561 21.9105 170.728 22.0246 170.887 22.1502L172.245 23.1907L177.272 27.1618L193.689 40.203L194.801 41.0925H194.515L209.494 27.7813L214.029 23.8102L215.276 22.7538C215.417 22.6192 215.571 22.4994 215.737 22.3964Z" fill="white"/>
<path d="M169.972 52.3777C169.892 52.2983 173.458 48.1842 177.954 43.1806C182.449 38.177 186.15 34.19 186.237 34.2614C186.325 34.3329 182.751 38.4549 178.256 43.4586C173.76 48.4622 170.059 52.4492 169.972 52.3777Z" fill="white"/>
<path d="M215.32 52.9894C215.097 52.8028 214.896 52.5894 214.725 52.354C214.367 51.9252 213.851 51.2977 213.231 50.5273C211.985 48.9389 210.277 46.8103 208.418 44.4038C206.56 41.9973 204.9 39.8053 203.701 38.2009C203.153 37.4067 202.692 36.811 202.303 36.2869C202.12 36.0544 201.96 35.8043 201.826 35.5403C201.826 35.5403 202.057 35.7388 202.414 36.1677L203.907 37.9865C205.154 39.5749 206.862 41.7114 208.728 44.1259C210.595 46.5403 212.263 48.7324 213.454 50.3367C214.05 51.1309 214.526 51.7981 214.852 52.2508C215.037 52.4773 215.194 52.7253 215.32 52.9894Z" fill="white"/>
<path d="M103.894 30.2192C102.766 32.9513 101.09 34.1426 99.4301 33.4596C99.1878 33.377 98.9654 33.2447 98.777 33.0713C98.5887 32.8979 98.4386 32.6872 98.3362 32.4526C98.2338 32.2179 98.1815 31.9645 98.1825 31.7085C98.1835 31.4526 98.2378 31.1996 98.342 30.9657C97.781 31.3902 97.1152 31.6543 96.4158 31.7298C95.7164 31.8053 95.0096 31.6895 94.3708 31.3946C93.8281 31.1767 93.3356 30.8501 92.9237 30.4349C92.5117 30.0197 92.1891 29.5245 91.9756 28.98C91.7621 28.4355 91.6623 27.853 91.6822 27.2685C91.7021 26.6839 91.8414 26.1096 92.0914 25.5809C92.2863 25.032 92.5917 24.529 92.9888 24.1029C93.3859 23.6768 93.8662 23.3368 94.3999 23.1037C94.9337 22.8707 95.5097 22.7497 96.0921 22.7482C96.6745 22.7467 97.251 22.8647 97.786 23.095C98.4276 23.3306 98.9954 23.7316 99.432 24.2575C99.8686 24.7833 100.158 25.4152 100.272 26.0892L100.939 24.5007L101.987 24.9296L99.4777 31.0213C99.1044 31.9268 99.4221 32.4351 99.9701 32.6574C100.971 33.0704 102.122 32.0935 103.02 29.9253C104.569 26.1448 102.885 22.5152 98.9932 20.9108C95.1015 19.3065 91.2813 20.8235 89.7167 24.6358C88.1521 28.448 89.7167 32.2127 93.6084 33.817C94.677 34.2557 95.8306 34.4484 96.9838 34.3809L96.9362 35.2784C95.6804 35.3398 94.4268 35.12 93.2669 34.6351C88.851 32.8163 87.0719 28.5354 88.8271 24.3101C90.5824 20.0849 94.895 18.3058 99.3348 20.1325C103.774 21.9592 105.625 26.0257 103.894 30.2192ZM99.3109 28.5434C99.4917 28.1386 99.5894 27.7017 99.5982 27.2585C99.6071 26.8153 99.5268 26.3748 99.3623 25.9632C99.1977 25.5516 98.9522 25.1772 98.6403 24.8622C98.3284 24.5472 97.9564 24.2981 97.5464 24.1295C97.1364 23.9609 96.6967 23.8764 96.2535 23.8809C95.8102 23.8853 95.3723 23.9788 94.9659 24.1556C94.5594 24.3324 94.1925 24.5891 93.887 24.9103C93.5815 25.2315 93.3436 25.6108 93.1874 26.0257C92.9852 26.4336 92.869 26.8787 92.8461 27.3334C92.8232 27.7881 92.8941 28.2426 93.0543 28.6688C93.2146 29.0949 93.4608 29.4836 93.7776 29.8106C94.0944 30.1375 94.4751 30.3958 94.896 30.5694C95.3168 30.743 95.7689 30.8282 96.2241 30.8196C96.6793 30.8111 97.1279 30.709 97.542 30.5197C97.9561 30.3305 98.3268 30.058 98.6311 29.7194C98.9354 29.3808 99.1668 28.9832 99.3109 28.5513V28.5434Z" fill="#064E8C"/>
<path d="M302.482 54.2325C301.577 57.0203 300.012 58.3307 298.32 57.7827C298.075 57.7179 297.846 57.6033 297.648 57.446C297.449 57.2887 297.285 57.0921 297.165 56.8684C297.046 56.6448 296.974 56.399 296.954 56.1463C296.934 55.8937 296.967 55.6396 297.05 55.4C296.531 55.8571 295.899 56.1656 295.219 56.2928C294.54 56.42 293.838 56.3613 293.19 56.1228C292.124 55.7147 291.256 54.9133 290.764 53.8839C290.271 52.8546 290.193 51.6756 290.544 50.59C290.895 49.5044 291.65 48.595 292.652 48.0492C293.654 47.5034 294.827 47.3628 295.93 47.6563C296.583 47.8417 297.177 48.1963 297.649 48.6844C298.122 49.1725 298.458 49.7768 298.622 50.4361L299.154 48.7762L300.226 49.1257L298.209 55.3365C297.907 56.2578 298.265 56.7343 298.821 56.925C299.837 57.2506 300.902 56.2022 301.624 53.9863C302.871 50.1343 300.933 46.6794 296.962 45.3849C292.991 44.0903 289.33 45.8852 288.067 49.7769C286.804 53.6686 288.631 57.2665 292.618 58.5134C293.708 58.8704 294.865 58.9737 296.001 58.8152V59.7127C294.767 59.8648 293.514 59.7428 292.332 59.3553C287.821 57.8939 285.74 53.7957 287.154 49.4434C288.567 45.091 292.713 43.0419 297.216 44.5112C301.72 45.9805 303.872 49.9358 302.482 54.2325ZM297.828 52.9221C297.993 52.3005 297.972 51.6443 297.767 51.0346C297.563 50.4249 297.184 49.8885 296.678 49.4918C296.172 49.095 295.561 48.8554 294.92 48.8025C294.279 48.7496 293.637 48.8857 293.073 49.1941C292.509 49.5024 292.047 49.9695 291.746 50.5374C291.444 51.1053 291.316 51.7492 291.376 52.3894C291.437 53.0295 291.684 53.6378 292.087 54.1391C292.489 54.6403 293.03 55.0124 293.642 55.2094C294.066 55.3637 294.519 55.4259 294.969 55.3919C295.419 55.3578 295.856 55.2282 296.252 55.0118C296.648 54.7954 296.993 54.4971 297.265 54.1367C297.537 53.7764 297.729 53.3623 297.828 52.9221Z" fill="#00A0E3"/>
</g>
<g opacity="0.2">
<path d="M155.249 149L143.023 180.211L189.328 198.348L201.553 167.137L155.249 149Z" fill="#EBEBEB"/>
<path d="M201.569 167.137C201.39 167.248 201.198 167.338 200.999 167.407L199.349 168.097L193.219 170.557L172.759 178.557L172.569 178.637L172.459 178.457L171.669 177.117L159.999 157.287L156.509 151.287C156.119 150.607 155.819 150.057 155.579 149.637C155.459 149.452 155.362 149.254 155.289 149.047C155.43 149.214 155.554 149.395 155.659 149.587L156.659 151.197C157.549 152.647 158.779 154.677 160.289 157.197C163.289 162.297 167.499 169.257 172.089 176.957L172.889 178.297L172.599 178.197L193.109 170.327L199.289 168.007L200.979 167.397C201.168 167.293 201.365 167.206 201.569 167.137Z" fill="#E0E0E0"/>
<path d="M143.001 180.477C142.931 180.347 148.141 177.347 154.631 173.777C161.121 170.207 166.451 167.417 166.521 167.547C166.591 167.677 161.381 170.667 154.881 174.237C148.381 177.807 143.061 180.597 143.001 180.477Z" fill="#E0E0E0"/>
<path d="M189.335 198.347C188.812 197.283 188.364 196.184 187.995 195.057C187.255 192.977 186.255 190.057 185.185 186.877C184.115 183.697 183.185 180.767 182.525 178.647C182.195 177.587 181.935 176.727 181.765 176.127C181.642 175.807 181.571 175.469 181.555 175.127C182.068 176.201 182.502 177.31 182.855 178.447C183.595 180.527 184.595 183.447 185.665 186.637C186.735 189.827 187.665 192.777 188.345 194.897C188.675 195.957 188.925 196.817 189.095 197.407C189.217 197.708 189.297 198.024 189.335 198.347Z" fill="#E0E0E0"/>
</g>
<g opacity="0.2">
<path d="M276.199 133.342C276.199 133.342 276.199 133.191 276.128 132.913L275.929 131.682C275.77 130.594 275.532 129.013 275.222 127.004C274.627 122.961 273.777 117.172 272.729 110.119L272.887 110.238L238.41 115.218C238.37 115.257 238.68 114.852 238.553 115.027V115.114V115.21V115.4L238.609 115.79L238.72 116.584C238.799 117.1 238.871 117.616 238.942 118.125C239.093 119.149 239.236 120.166 239.379 121.174C239.665 123.184 239.951 125.146 240.229 127.115C240.785 131.007 241.317 134.748 241.817 138.29L241.643 138.155L266.462 134.668L273.61 133.691L275.508 133.437L276.001 133.374H276.176C276.176 133.374 276.128 133.374 276.025 133.374L275.548 133.453L273.69 133.739L266.629 134.819L241.722 138.473H241.571V138.314C241.063 134.772 240.523 131.039 239.983 127.147C239.697 125.201 239.419 123.176 239.125 121.206C238.982 120.198 238.831 119.181 238.688 118.156C238.617 117.648 238.537 117.132 238.466 116.624L238.355 115.829L238.299 115.44V115.25V115.154V115.067C238.172 115.242 238.474 114.829 238.45 114.876L272.935 109.96H273.07V110.095C274.063 117.187 274.873 123.017 275.453 127.083C275.723 129.085 275.937 130.657 276.088 131.746C276.152 132.262 276.207 132.667 276.247 132.953C276.287 133.239 276.199 133.342 276.199 133.342Z" fill="#263238"/>
<path d="M272.864 110.103C272.795 110.231 272.712 110.35 272.617 110.46L271.823 111.453L268.932 115.067L259.243 127.02L259.147 127.131L259.02 127.059L258.075 126.519L244.097 118.474L239.879 115.996L238.744 115.313C238.609 115.233 238.479 115.146 238.354 115.051C238.501 115.102 238.642 115.169 238.775 115.249L239.943 115.885L244.216 118.267L258.242 126.21L259.195 126.75H258.973L268.757 114.836L271.72 111.278L272.514 110.333C272.624 110.246 272.741 110.169 272.864 110.103Z" fill="#263238"/>
<path d="M241.783 138.473C241.687 138.41 243.816 134.78 246.548 130.356C249.28 125.933 251.56 122.414 251.655 122.462C251.75 122.509 249.622 126.155 246.889 130.579C244.157 135.003 241.878 138.529 241.783 138.473Z" fill="#263238"/>
<path d="M276.202 133.343C275.502 132.874 274.846 132.342 274.241 131.755C273.065 130.746 271.461 129.372 269.698 127.784C267.934 126.195 266.362 124.75 265.234 123.686C264.593 123.131 263.996 122.528 263.447 121.883C264.144 122.353 264.798 122.885 265.401 123.471C266.576 124.48 268.189 125.854 269.952 127.442C271.715 129.031 273.303 130.484 274.431 131.556C275.072 132.1 275.664 132.698 276.202 133.343Z" fill="#263238"/>
</g>
</svg>
