<svg width="24" height="24" viewBox="0 0 24 24" fill="none" xmlns="http://www.w3.org/2000/svg">
<path d="M5.65878 20.0318V20.5318H6.65878V20.0318H5.65878ZM17.3413 20.0318V20.5318H18.3413V20.0318H17.3413ZM6.65878 20.0318V19.3014H5.65878V20.0318H6.65878ZM10.5397 15.4207H13.4604V14.4207H10.5397V15.4207ZM17.3413 19.3014V20.0318H18.3413V19.3014H17.3413ZM13.4604 15.4207C15.6038 15.4207 17.3413 17.1581 17.3413 19.3014H18.3413C18.3413 16.6057 16.156 14.4207 13.4604 14.4207V15.4207ZM6.65878 19.3014C6.65878 17.1581 8.39632 15.4207 10.5397 15.4207V14.4207C7.84409 14.4207 5.65878 16.6057 5.65878 19.3014H6.65878ZM12.0001 5.65878C10.1109 5.65878 8.57942 7.19026 8.57942 9.07942H9.57942C9.57942 7.74254 10.6632 6.65878 12.0001 6.65878V5.65878ZM15.4207 9.07942C15.4207 7.19026 13.8892 5.65878 12.0001 5.65878V6.65878C13.3369 6.65878 14.4207 7.74254 14.4207 9.07942H15.4207ZM12.0001 12.5001C13.8892 12.5001 15.4207 10.9686 15.4207 9.07942H14.4207C14.4207 10.4163 13.3369 11.5001 12.0001 11.5001V12.5001ZM12.0001 11.5001C10.6632 11.5001 9.57942 10.4163 9.57942 9.07942H8.57942C8.57942 10.9686 10.1109 12.5001 12.0001 12.5001V11.5001ZM12.0001 21.7223C6.63062 21.7223 2.27783 17.3695 2.27783 12.0001H1.27783C1.27783 17.9218 6.07833 22.7223 12.0001 22.7223V21.7223ZM21.7223 12.0001C21.7223 17.3695 17.3695 21.7223 12.0001 21.7223V22.7223C17.9218 22.7223 22.7223 17.9218 22.7223 12.0001H21.7223ZM12.0001 2.27783C17.3695 2.27783 21.7223 6.63062 21.7223 12.0001H22.7223C22.7223 6.07833 17.9218 1.27783 12.0001 1.27783V2.27783ZM12.0001 1.27783C6.07833 1.27783 1.27783 6.07833 1.27783 12.0001H2.27783C2.27783 6.63062 6.63062 2.27783 12.0001 2.27783V1.27783Z" fill="#064E8C"/>
</svg>
