<svg width="21" height="20" viewBox="0 0 21 20" fill="none" xmlns="http://www.w3.org/2000/svg">
<path d="M0.796875 10.3996L0.396875 10.0996C0.26968 10.2692 0.263258 10.5006 0.38085 10.677L0.796875 10.3996ZM19.9969 10.3996L20.4129 10.677C20.5305 10.5006 20.5241 10.2692 20.3969 10.0996L19.9969 10.3996ZM0.796875 10.3996C0.38085 10.677 0.380987 10.6772 0.381137 10.6774C0.381203 10.6775 0.381366 10.6777 0.381498 10.6779C0.381764 10.6783 0.382079 10.6788 0.382444 10.6793C0.383173 10.6804 0.384101 10.6818 0.385227 10.6835C0.387478 10.6868 0.390522 10.6913 0.394358 10.6968C0.402031 10.708 0.412877 10.7236 0.426897 10.7433C0.454934 10.7827 0.495685 10.8387 0.549159 10.9089C0.656075 11.0492 0.814051 11.2465 1.02317 11.4818C1.44106 11.9519 2.06533 12.576 2.89687 13.1996C4.56146 14.448 7.06413 15.6996 10.3969 15.6996V14.6996C7.32962 14.6996 5.03229 13.5512 3.49687 12.3996C2.72842 11.8233 2.15269 11.2473 1.77058 10.8174C1.5797 10.6027 1.43767 10.425 1.34459 10.3028C1.29806 10.2418 1.26382 10.1946 1.24185 10.1638C1.23087 10.1483 1.22297 10.1369 1.21814 10.1299C1.21573 10.1264 1.21408 10.124 1.21321 10.1227C1.21277 10.1221 1.21253 10.1217 1.21248 10.1216C1.21245 10.1216 1.21247 10.1216 1.21254 10.1217C1.21258 10.1218 1.21267 10.1219 1.21269 10.1219C1.21279 10.1221 1.2129 10.1223 0.796875 10.3996ZM10.3969 15.6996C13.7296 15.6996 16.2323 14.448 17.8969 13.1996C18.7284 12.576 19.3527 11.9519 19.7706 11.4818C19.9797 11.2465 20.1377 11.0492 20.2446 10.9089C20.2981 10.8387 20.3388 10.7827 20.3669 10.7433C20.3809 10.7236 20.3917 10.708 20.3994 10.6968C20.4032 10.6913 20.4063 10.6868 20.4085 10.6835C20.4096 10.6818 20.4106 10.6804 20.4113 10.6793C20.4117 10.6788 20.412 10.6783 20.4123 10.6779C20.4124 10.6777 20.4125 10.6775 20.4126 10.6774C20.4128 10.6772 20.4129 10.677 19.9969 10.3996C19.5808 10.1223 19.581 10.1221 19.5811 10.1219C19.5811 10.1219 19.5812 10.1218 19.5812 10.1217C19.5813 10.1216 19.5813 10.1216 19.5813 10.1216C19.5812 10.1217 19.581 10.1221 19.5805 10.1227C19.5797 10.124 19.578 10.1264 19.5756 10.1299C19.5708 10.1369 19.5629 10.1483 19.5519 10.1638C19.5299 10.1946 19.4957 10.2418 19.4492 10.3028C19.3561 10.425 19.2141 10.6027 19.0232 10.8174C18.6411 11.2473 18.0653 11.8233 17.2969 12.3996C15.7615 13.5512 13.4641 14.6996 10.3969 14.6996V15.6996ZM0.796875 10.3996C1.19688 10.6996 1.19677 10.6997 1.19668 10.6999C1.19667 10.6999 1.19659 10.7 1.19657 10.7C1.19652 10.7001 1.19653 10.7001 1.19659 10.7C1.19671 10.6998 1.19705 10.6994 1.1976 10.6987C1.19871 10.6972 1.20069 10.6946 1.20352 10.6909C1.20919 10.6836 1.21829 10.6718 1.23079 10.6561C1.2558 10.6245 1.29439 10.5766 1.34627 10.5148C1.45005 10.3911 1.6068 10.2119 1.81412 9.99556C2.22917 9.56246 2.84453 8.9832 3.64096 8.40398C5.23574 7.24414 7.53464 6.09961 10.3969 6.09961V5.09961C7.25911 5.09961 4.75801 6.35508 3.05279 7.59524C2.19922 8.21602 1.53957 8.83676 1.09213 9.30366C0.868203 9.53732 0.696823 9.73308 0.580294 9.87192C0.522013 9.94136 0.477401 9.99663 0.446747 10.0354C0.431418 10.0547 0.419574 10.0699 0.411251 10.0808C0.40709 10.0862 0.403808 10.0905 0.401411 10.0936C0.400212 10.0952 0.399234 10.0965 0.398478 10.0975C0.3981 10.098 0.397777 10.0984 0.39751 10.0988C0.397377 10.0989 0.397218 10.0992 0.397151 10.0992C0.397006 10.0994 0.396875 10.0996 0.796875 10.3996ZM10.3969 6.09961C13.2591 6.09961 15.558 7.24414 17.1528 8.40398C17.9492 8.9832 18.5646 9.56246 18.9796 9.99556C19.187 10.2119 19.3437 10.3911 19.4475 10.5148C19.4994 10.5766 19.5379 10.6245 19.563 10.6561C19.5755 10.6718 19.5846 10.6836 19.5902 10.6909C19.5931 10.6946 19.595 10.6972 19.5961 10.6987C19.5967 10.6994 19.597 10.6998 19.5972 10.7C19.5972 10.7001 19.5972 10.7001 19.5972 10.7C19.5972 10.7 19.5971 10.6999 19.5971 10.6999C19.597 10.6997 19.5969 10.6996 19.9969 10.3996C20.3969 10.0996 20.3967 10.0994 20.3966 10.0992C20.3965 10.0992 20.3964 10.0989 20.3962 10.0988C20.396 10.0984 20.3956 10.098 20.3953 10.0975C20.3945 10.0965 20.3935 10.0952 20.3923 10.0936C20.3899 10.0905 20.3867 10.0862 20.3825 10.0808C20.3742 10.0699 20.3623 10.0547 20.347 10.0354C20.3163 9.99663 20.2717 9.94136 20.2135 9.87192C20.0969 9.73308 19.9255 9.53732 19.7016 9.30366C19.2542 8.83676 18.5945 8.21602 17.741 7.59524C16.0357 6.35508 13.5346 5.09961 10.3969 5.09961V6.09961ZM12.2969 10.3996C12.2969 11.449 11.4462 12.2996 10.3969 12.2996V13.2996C11.9985 13.2996 13.2969 12.0012 13.2969 10.3996H12.2969ZM10.3969 12.2996C9.34753 12.2996 8.49687 11.449 8.49687 10.3996H7.49687C7.49687 12.0012 8.79525 13.2996 10.3969 13.2996V12.2996ZM8.49687 10.3996C8.49687 9.35027 9.34753 8.49961 10.3969 8.49961V7.49961C8.79525 7.49961 7.49687 8.79798 7.49687 10.3996H8.49687ZM10.3969 8.49961C11.4462 8.49961 12.2969 9.35027 12.2969 10.3996H13.2969C13.2969 8.79798 11.9985 7.49961 10.3969 7.49961V8.49961Z" fill="#00A0E3"/>
</svg>
