<svg width="287" height="287" viewBox="0 0 287 287" fill="none" xmlns="http://www.w3.org/2000/svg">
<path d="M250.88 119.469C250.88 203.096 143.36 274.776 143.36 274.776C143.36 274.776 35.8398 203.096 35.8398 119.469C35.8398 90.9531 47.1678 63.605 67.3317 43.4411C87.4956 23.2772 114.844 11.9492 143.36 11.9492C171.876 11.9492 199.224 23.2772 219.388 43.4411C239.552 63.605 250.88 90.9531 250.88 119.469Z" stroke="#00A0E3" stroke-width="2.56" stroke-linecap="round" stroke-linejoin="round"/>
<path d="M143.36 155.309C163.153 155.309 179.2 139.263 179.2 119.469C179.2 99.675 163.153 83.6289 143.36 83.6289C123.566 83.6289 107.52 99.675 107.52 119.469C107.52 139.263 123.566 155.309 143.36 155.309Z" stroke="#00A0E3" stroke-width="2.56" stroke-linecap="round" stroke-linejoin="round"/>
</svg>
