<svg width="290" height="290" viewBox="0 0 290 290" fill="none" xmlns="http://www.w3.org/2000/svg">
<path opacity="0.18" d="M227.28 263.024C264.42 237.118 288.72 194.077 288.72 145.36C288.72 66.1845 224.536 2 145.36 2C66.1845 2 2 66.1845 2 145.36C2 194.077 26.2998 237.118 63.44 263.024M227.28 263.024C204.059 279.221 175.819 288.72 145.36 288.72C114.901 288.72 86.6609 279.221 63.44 263.024M227.28 263.024V258V247.757C227.28 213.825 199.772 186.32 165.84 186.32H124.88C90.9476 186.32 63.44 213.825 63.44 247.757V261.84V263.024M145.36 63.44C122.738 63.44 104.4 81.7784 104.4 104.4C104.4 127.022 122.738 145.36 145.36 145.36C167.982 145.36 186.32 127.022 186.32 104.4C186.32 81.7784 167.982 63.44 145.36 63.44Z" stroke="#00A0E3" stroke-width="2.56"/>
</svg>
