<svg width="20" height="20" viewBox="0 0 20 20" fill="none" xmlns="http://www.w3.org/2000/svg">
<path d="M4.40438 15.6468C4.20912 15.8421 4.20912 16.1586 4.40438 16.3539C4.59964 16.5492 4.91621 16.5492 5.11147 16.3539L4.40438 15.6468ZM16.3535 5.11137C16.5488 4.91611 16.5488 4.59952 16.3535 4.40425C16.1583 4.20899 15.8417 4.20899 15.6465 4.40425L16.3535 5.11137ZM15.6465 4.40425L4.40438 15.6468L5.11147 16.3539L16.3535 5.11137L15.6465 4.40425Z" fill="#A3A8AB"/>
<path d="M5.11124 4.40414C4.91598 4.20888 4.5994 4.20888 4.40414 4.40414C4.20888 4.5994 4.20888 4.91599 4.40414 5.11125L5.11124 4.40414ZM15.6464 16.3536C15.8417 16.5488 16.1583 16.5488 16.3536 16.3536C16.5488 16.1583 16.5488 15.8417 16.3536 15.6464L15.6464 16.3536ZM16.3536 15.6464L5.11124 4.40414L4.40414 5.11125L15.6464 16.3536L16.3536 15.6464Z" fill="#A3A8AB"/>
</svg>
