<svg width="82" height="64" viewBox="0 0 82 64" fill="none" xmlns="http://www.w3.org/2000/svg">
<rect width="82" height="51" fill="white"/>
<path fill-rule="evenodd" clip-rule="evenodd" d="M44.8334 4.86914H36.4642L40.6488 11.3685L44.8334 4.86914ZM35.4235 5.33604L27.1641 18.1653H36.2739L39.9784 12.4108L35.4235 5.33604Z" fill="#00A0E3"/>
<path fill-rule="evenodd" clip-rule="evenodd" d="M45.5864 4.86914H36.4766L45.0361 18.1653H54.1459L45.5864 4.86914Z" fill="#064E8C"/>
<path fill-rule="evenodd" clip-rule="evenodd" d="M49.9613 25.8055L45.7767 19.3047H54.1459L49.9613 25.8055ZM45.8865 32.1339L41.3315 25.0591L44.736 19.7716L49.2909 26.8464L45.8865 32.1339ZM40.6612 26.1014L44.8458 32.6008H36.4766L40.6612 26.1014Z" fill="#00A0E3"/>
<path fill-rule="evenodd" clip-rule="evenodd" d="M54.8755 19.3047H45.7656L54.3251 32.6008H63.4335L54.8755 19.3047Z" fill="#064E8C"/>
<path fill-rule="evenodd" clip-rule="evenodd" d="M31.3519 25.8055L27.1673 19.3047H35.5365L31.3519 25.8055ZM26.1266 19.7716L30.6816 26.8464L26.977 32.6008H17.8672L26.1266 19.7716Z" fill="#00A0E3"/>
<path fill-rule="evenodd" clip-rule="evenodd" d="M36.2739 19.3047H27.1641L35.7236 32.6008H44.8334L36.2739 19.3047Z" fill="#064E8C"/>
<path fill-rule="evenodd" clip-rule="evenodd" d="M16.7786 34.0039H64.3198L68.2468 38.0407V38.0422H12.8516V38.0407L16.7786 34.0039Z" fill="#064E8C"/>
<path d="M16.5073 41.6797C16.5073 42.7934 15.9394 43.3495 14.8021 43.3495H14.0732V44.9821H12.8203V40.0605H14.7392C15.3056 40.0605 15.7418 40.2003 16.0477 40.4798C16.3551 40.7594 16.5073 41.1593 16.5073 41.6797ZM15.1973 41.7035C15.1973 41.4835 15.1388 41.3259 15.0187 41.2337C14.9002 41.1385 14.7099 41.0909 14.4479 41.0909H14.0732V42.3116H14.4596C14.7231 42.3116 14.9119 42.2656 15.026 42.1734C15.1402 42.0827 15.1973 41.9251 15.1973 41.7035ZM21.3125 40.0605L19.136 44.9821H17.7485L18.4042 43.6245L16.5849 40.0605H18.1188L19.1038 42.215L19.9132 40.0605H21.3125ZM24.9307 44.8824C24.496 45.0356 24.1213 45.1114 23.808 45.1114C23.0777 45.1114 22.4629 44.8631 21.9638 44.365C21.4647 43.8669 21.2159 43.2513 21.2159 42.5213C21.2159 41.8031 21.4691 41.192 21.9755 40.6865C22.482 40.1825 23.0938 39.9297 23.8139 39.9297C24.1871 39.9297 24.5604 40.013 24.9307 40.1795V41.7184C24.6423 41.3526 24.2705 41.1697 23.8197 41.1697C23.4494 41.1697 23.1406 41.2991 22.8947 41.5533C22.6503 41.8106 22.5273 42.1317 22.5273 42.5213C22.5273 42.9227 22.6473 43.2469 22.8888 43.4982C23.1304 43.7465 23.4436 43.8714 23.8256 43.8714C24.2647 43.8714 24.6335 43.6974 24.9307 43.3495V44.8824ZM30.3521 44.9821H29.0026L28.6864 44.0424H26.889L26.5758 44.9821H25.2263L27.0559 40.0605H28.5196L30.3521 44.9821ZM28.36 43.0625L27.7892 41.3586L27.2154 43.0625H28.36ZM34.4006 43.5799C34.4006 44.0305 34.2454 44.3754 33.9366 44.6178C33.6263 44.8616 33.1901 44.9821 32.6251 44.9821H30.7063V40.0605H32.4978C33.4624 40.0605 33.9439 40.4888 33.9439 41.3452C33.9439 41.8314 33.7668 42.1674 33.4097 42.3518C34.0698 42.4663 34.4006 42.8752 34.4006 43.5799ZM32.7876 41.5177C32.7876 41.198 32.5724 41.0389 32.1421 41.0389H31.9592V41.992H32.129C32.5681 41.992 32.7876 41.8329 32.7876 41.5177ZM33.1272 43.4833C33.1272 43.1294 32.8959 42.9525 32.4305 42.9525H31.9592V44.0022H32.3222C32.8593 44.0022 33.1272 43.8297 33.1272 43.4833ZM38.0231 41.1445H36.9751V44.9821H35.7222V41.1445H34.6816V40.0605H38.0231V41.1445ZM43.3816 42.5213C43.3816 43.2647 43.1269 43.8833 42.6176 44.3739C42.1082 44.8661 41.4701 45.1114 40.7016 45.1114C39.9347 45.1114 39.2965 44.8661 38.7901 44.3739C38.2822 43.8833 38.029 43.2647 38.029 42.5213C38.029 41.7779 38.2822 41.1593 38.7901 40.6672C39.2965 40.1765 39.9347 39.9297 40.7016 39.9297C41.4701 39.9297 42.1082 40.1765 42.6176 40.6672C43.1269 41.1593 43.3816 41.7779 43.3816 42.5213ZM42.0702 42.5213C42.0702 42.1421 41.9384 41.8225 41.675 41.5608C41.41 41.3006 41.088 41.1697 40.7016 41.1697C40.3181 41.1697 39.9961 41.3006 39.7341 41.5608C39.4707 41.8225 39.3404 42.1421 39.3404 42.5213C39.3404 42.899 39.4707 43.2201 39.7341 43.4803C39.9961 43.742 40.3181 43.8714 40.7016 43.8714C41.088 43.8714 41.41 43.742 41.675 43.4803C41.9384 43.2201 42.0702 42.899 42.0702 42.5213ZM48.4312 45.9797H47.332V44.9821H44.5891V45.9797H43.4899V43.9041C43.7885 43.9041 43.9993 43.7331 44.1207 43.3881C44.2144 43.125 44.2613 42.7295 44.2613 42.2016V40.0605H47.9307V43.9041H48.4312V45.9797ZM46.6763 43.9041V41.137H45.4366V42.7086C45.4366 43.3168 45.2844 43.7152 44.9814 43.9041H46.6763ZM51.7215 44.9821H48.964V40.0605H51.7215V41.1445H50.2169V41.9667H51.644V43.0566H50.2169V43.8981H51.7215V44.9821ZM55.4656 41.1445H54.4176V44.9821H53.1647V41.1445H52.1241V40.0605H55.4656V41.1445ZM60.3411 44.9821H58.9916L58.6739 44.0424H56.878L56.5633 44.9821H55.2153L57.0434 40.0605H58.5086L60.3411 44.9821ZM58.349 43.0625L57.7782 41.3586L57.203 43.0625H58.349ZM64.6457 44.9821H63.3869V41.1445H62.2482V43.1948C62.2482 43.7703 62.1706 44.194 62.014 44.4661C61.7872 44.8527 61.3715 45.0475 60.7655 45.0475C60.5562 45.0475 60.3762 45.0192 60.2254 44.9642L60.2884 43.8401C60.4113 43.8966 60.5387 43.9249 60.6675 43.9249C60.805 43.9249 60.8987 43.8743 60.947 43.7747C61.0012 43.6602 61.029 43.4312 61.029 43.0893V40.0605H64.6457V44.9821ZM69.1889 43.4372C69.1889 44.084 68.924 44.5315 68.3956 44.7784C68.1087 44.9137 67.756 44.9821 67.3388 44.9821H65.4756V40.0605H66.7285V41.9013H67.3403C67.7443 41.9013 68.0985 41.9741 68.4015 42.1213C68.9269 42.3726 69.1889 42.8127 69.1889 43.4372ZM67.936 43.4357C67.936 43.0521 67.6916 42.8603 67.2042 42.8603H66.7285V44.0022H67.2042C67.6916 44.0022 67.936 43.8134 67.936 43.4357Z" fill="#064E8C"/>
<path d="M41.6406 63.75L33.3187 49.4062L49.9626 49.4062L41.6406 63.75Z" fill="white"/>
</svg>
