<svg width="796" height="498" viewBox="0 0 796 498" fill="none" xmlns="http://www.w3.org/2000/svg">
<path fill-rule="evenodd" clip-rule="evenodd" d="M485.865 0H358.722L422.294 97.5618L485.865 0ZM342.913 7.00858L217.438 199.587H355.832L412.11 113.208L342.913 7.00858Z" fill="#EDF8FD"/>
<path fill-rule="evenodd" clip-rule="evenodd" d="M497.16 0H358.766L488.799 199.587H627.193L497.16 0Z" fill="#EDF8FD"/>
<path fill-rule="evenodd" clip-rule="evenodd" d="M563.622 314.279L500.05 216.695H627.193L563.622 314.279ZM501.718 409.274L432.521 303.075L484.241 223.704L553.438 329.903L501.718 409.274ZM422.337 318.721L485.909 416.283H358.766L422.337 318.721Z" fill="#EDF8FD"/>
<path fill-rule="evenodd" clip-rule="evenodd" d="M638.441 216.695H500.047L630.08 416.283H768.452L638.441 216.695Z" fill="#EDF8FD"/>
<path fill-rule="evenodd" clip-rule="evenodd" d="M281.013 314.279L217.441 216.695H344.584L281.013 314.279ZM201.632 223.704L270.829 329.903L214.55 416.283H76.1562L201.632 223.704Z" fill="#EDF8FD"/>
<path fill-rule="evenodd" clip-rule="evenodd" d="M355.832 216.695H217.438L347.471 416.283H485.865L355.832 216.695Z" fill="#EDF8FD"/>
<path fill-rule="evenodd" clip-rule="evenodd" d="M59.658 437.381H781.891L841.549 497.977V498H0V497.977L59.658 437.381Z" fill="#EDF8FD"/>
</svg>
