<svg width="281" height="351" viewBox="0 0 281 351" fill="none" xmlns="http://www.w3.org/2000/svg">
<path d="M119.567 347.559L327.702 3.44116H269.149L61.0136 347.559H119.567ZM25.0943 24.5798C8.36477 40.8025 0 61.4496 0 85.5378C0 109.626 8.36477 130.273 25.0943 146.496C41.8238 162.718 62.9818 171.076 89.0602 171.076C115.139 171.076 136.297 162.718 153.026 146.496C169.756 130.273 178.12 109.626 178.12 85.5378C178.12 61.4496 169.756 40.8025 153.026 24.5798C136.297 8.35712 115.139 0 89.0602 0C62.9818 0 41.8238 8.35712 25.0943 24.5798ZM66.4261 109.626C54.617 96.3529 54.617 74.2311 66.4261 61.9412C78.2352 48.6681 99.8852 48.6681 111.694 61.9412C123.503 74.2311 123.503 96.3529 111.694 109.626C99.8852 121.916 78.2352 121.916 66.4261 109.626ZM235.198 204.504C218.468 220.727 210.103 241.374 210.103 265.462C210.103 289.55 218.468 310.197 235.198 326.42C251.927 342.643 273.085 351 299.164 351C325.242 351 346.4 342.643 363.129 326.42C379.859 310.197 388.224 289.55 388.224 265.462C388.224 241.374 379.859 220.727 363.129 204.504C346.4 188.282 325.242 179.924 299.164 179.924C273.085 179.924 251.927 188.282 235.198 204.504ZM276.529 289.55C264.72 276.277 264.72 254.155 276.529 241.866C288.339 228.592 309.989 228.592 321.798 241.866C333.607 254.155 333.607 276.277 321.798 289.55C309.989 301.84 288.339 301.84 276.529 289.55Z" fill="#00A0E3"/>
</svg>
