<svg width="498" height="451" viewBox="0 0 498 451" fill="none" xmlns="http://www.w3.org/2000/svg">
<g opacity="0.1">
<path d="M153.968 445.797L420.381 5.32656H345.432L79.0193 445.797H153.968ZM33.0426 32.3841C11.6288 53.1491 0.921875 79.5773 0.921875 110.41C0.921875 141.243 11.6288 167.671 33.0426 188.436C54.4564 209.202 81.5386 219.899 114.919 219.899C148.299 219.899 175.381 209.202 196.795 188.436C218.209 167.671 228.916 141.243 228.916 110.41C228.916 79.5773 218.209 53.1491 196.795 32.3841C175.381 11.619 148.299 0.921875 114.919 0.921875C81.5386 0.921875 54.4564 11.619 33.0426 32.3841ZM85.9473 141.243C70.8317 124.254 70.8317 95.9376 85.9473 80.2066C101.063 63.217 128.775 63.217 143.891 80.2066C159.006 95.9376 159.006 124.254 143.891 141.243C128.775 156.974 101.063 156.974 85.9473 141.243ZM301.975 262.687C280.561 283.452 269.854 309.881 269.854 340.713C269.854 371.546 280.561 397.975 301.975 418.74C323.389 439.505 350.471 450.202 383.851 450.202C417.232 450.202 444.314 439.505 465.727 418.74C487.141 397.975 497.848 371.546 497.848 340.713C497.848 309.881 487.141 283.452 465.727 262.687C444.314 241.922 417.232 231.225 383.851 231.225C350.471 231.225 323.389 241.922 301.975 262.687ZM354.88 371.546C339.764 354.557 339.764 326.241 354.88 310.51C369.995 293.52 397.707 293.52 412.823 310.51C427.938 326.241 427.938 354.557 412.823 371.546C397.707 387.277 369.995 387.277 354.88 371.546Z" fill="#00A0E3"/>
</g>
</svg>
