<svg width="361" height="451" viewBox="0 0 361 451" fill="none" xmlns="http://www.w3.org/2000/svg">
<g opacity="0.1" clip-path="url(#clip0_941_14026)">
<path d="M153.968 445.795L420.381 5.32461H345.432L79.0193 445.795H153.968ZM33.0426 32.3821C11.6288 53.1471 0.921875 79.5754 0.921875 110.408C0.921875 141.241 11.6288 167.669 33.0426 188.435C54.4564 209.2 81.5386 219.897 114.919 219.897C148.299 219.897 175.381 209.2 196.795 188.435C218.209 167.669 228.916 141.241 228.916 110.408C228.916 79.5754 218.209 53.1471 196.795 32.3821C175.381 11.617 148.299 0.919922 114.919 0.919922C81.5386 0.919922 54.4564 11.617 33.0426 32.3821ZM85.9473 141.241C70.8317 124.252 70.8317 95.9357 85.9473 80.2046C101.063 63.215 128.775 63.215 143.891 80.2046C159.006 95.9357 159.006 124.252 143.891 141.241C128.775 156.972 101.063 156.972 85.9473 141.241ZM301.975 262.685C280.561 283.45 269.854 309.879 269.854 340.712C269.854 371.544 280.561 397.973 301.975 418.738C323.389 439.503 350.471 450.2 383.851 450.2C417.232 450.2 444.314 439.503 465.727 418.738C487.141 397.973 497.848 371.544 497.848 340.712C497.848 309.879 487.141 283.45 465.727 262.685C444.314 241.92 417.232 231.223 383.851 231.223C350.471 231.223 323.389 241.92 301.975 262.685ZM354.88 371.544C339.764 354.555 339.764 326.239 354.88 310.508C369.995 293.518 397.707 293.518 412.823 310.508C427.938 326.239 427.938 354.555 412.823 371.544C397.707 387.276 369.995 387.276 354.88 371.544Z" fill="#00A0E3"/>
</g>
<defs>
<clipPath id="clip0_941_14026">
<rect width="359.68" height="449.28" fill="white" transform="translate(0.921875 0.919922)"/>
</clipPath>
</defs>
</svg>
