<svg id="Слой_1" data-name="Слой 1" xmlns="http://www.w3.org/2000/svg" viewBox="0 0 496.93 449.28"><defs><style>.cls-1{fill:#00a0e3;opacity:0.1;}</style></defs><path class="cls-1" d="M154,445.8,420.38,5.33H345.43L79,445.8ZM33,32.38C11.63,53.15.92,79.58.92,110.41s10.71,57.26,32.12,78,48.5,31.46,81.88,31.46,60.46-10.7,81.87-31.46,32.13-47.2,32.13-78-10.71-57.26-32.13-78S148.3.92,114.92.92,54.46,11.62,33,32.38ZM86,141.24c-15.12-17-15.12-45.3,0-61,15.11-17,42.82-17,57.94,0,15.12,15.73,15.12,44,0,61C128.77,157,101.06,157,86,141.24ZM302,262.69c-21.42,20.76-32.13,47.19-32.13,78s10.71,57.27,32.13,78,48.49,31.46,81.87,31.46,60.46-10.69,81.88-31.46,32.12-47.19,32.12-78-10.71-57.26-32.12-78-48.5-31.46-81.88-31.46S323.39,241.92,302,262.69Zm52.9,108.86c-15.12-17-15.12-45.31,0-61,15.11-17,42.83-17,57.94,0,15.12,15.73,15.12,44.05,0,61C397.71,387.28,370,387.28,354.88,371.55Z" transform="translate(-0.92 -0.92)"/></svg>