<svg width="60" height="44" viewBox="0 0 60 44" fill="none" xmlns="http://www.w3.org/2000/svg">
<g opacity="0.4">
<path fill-rule="evenodd" clip-rule="evenodd" d="M34.466 0.838013H25.6898L30.0779 7.54517L34.466 0.838013ZM24.5985 1.31984L15.9375 14.5592H25.4903L29.3749 8.62084L24.5985 1.31984Z" fill="#00A0E3"/>
<path fill-rule="evenodd" clip-rule="evenodd" d="M35.2403 0.838013H25.6875L34.6632 14.5592H44.216L35.2403 0.838013Z" fill="#064E8C"/>
<path fill-rule="evenodd" clip-rule="evenodd" d="M39.8279 22.4442L35.4398 15.7355H44.216L39.8279 22.4442ZM35.5549 28.9749L30.7785 21.6739L34.3485 16.2173L39.1249 23.5183L35.5549 28.9749ZM30.0756 22.7495L34.4637 29.4567H25.6875L30.0756 22.7495Z" fill="#00A0E3"/>
<path fill-rule="evenodd" clip-rule="evenodd" d="M44.9903 15.7355H35.4375L44.4132 29.4567H53.9644L44.9903 15.7355Z" fill="#064E8C"/>
<path fill-rule="evenodd" clip-rule="evenodd" d="M20.3357 22.4442L15.9476 15.7355H24.7238L20.3357 22.4442ZM14.8564 16.2173L19.6328 23.5183L15.7481 29.4567H6.19531L14.8564 16.2173Z" fill="#00A0E3"/>
<path fill-rule="evenodd" clip-rule="evenodd" d="M25.4903 15.7355H15.9375L24.9132 29.4567H34.466L25.4903 15.7355Z" fill="#064E8C"/>
<path fill-rule="evenodd" clip-rule="evenodd" d="M5.03982 30.9069H54.8926L59.0106 35.0728V35.0743H0.921875V35.0728L5.03982 30.9069Z" fill="#064E8C"/>
<path d="M4.75686 38.8252C4.75686 39.9744 4.16134 40.5483 2.96878 40.5483H2.20444V42.2331H0.890625V37.1542H2.90278C3.49676 37.1542 3.95414 37.2984 4.27492 37.5869C4.59724 37.8754 4.75686 38.2881 4.75686 38.8252ZM3.38319 38.8497C3.38319 38.6226 3.32179 38.46 3.19594 38.3648C3.07162 38.2666 2.87209 38.2175 2.59736 38.2175H2.20444V39.4773H2.60963C2.8859 39.4773 3.08389 39.4297 3.20361 39.3346C3.32333 39.241 3.38319 39.0783 3.38319 38.8497ZM9.79571 37.1542L7.51342 42.2331H6.05839L6.746 40.8322L4.83821 37.1542H6.44671L7.47965 39.3775L8.32841 37.1542H9.79571ZM13.5898 42.1302C13.134 42.2883 12.741 42.3666 12.4126 42.3666C11.6467 42.3666 11.0021 42.1103 10.4787 41.5963C9.95533 41.0823 9.69441 40.447 9.69441 39.6936C9.69441 38.9525 9.95993 38.3219 10.491 37.8002C11.022 37.28 11.6636 37.0192 12.4187 37.0192C12.8101 37.0192 13.2015 37.1051 13.5898 37.277V38.8651C13.2874 38.4876 12.8976 38.2989 12.4249 38.2989C12.0366 38.2989 11.7127 38.4324 11.4549 38.6947C11.1985 38.9602 11.0696 39.2916 11.0696 39.6936C11.0696 40.1079 11.1955 40.4424 11.4487 40.7017C11.702 40.958 12.0304 41.0869 12.431 41.0869C12.8915 41.0869 13.2782 40.9073 13.5898 40.5483V42.1302ZM19.2748 42.2331H17.8597L17.5282 41.2633H15.6434L15.315 42.2331H13.8998L15.8184 37.1542H17.3532L19.2748 42.2331ZM17.1859 40.2521L16.5873 38.4937L15.9857 40.2521H17.1859ZM23.5202 40.7861C23.5202 41.251 23.3575 41.607 23.0336 41.8571C22.7082 42.1088 22.2509 42.2331 21.6584 42.2331H19.6462V37.1542H21.5249C22.5363 37.1542 23.0413 37.5961 23.0413 38.4799C23.0413 38.9817 22.8556 39.3284 22.4811 39.5187C23.1733 39.6369 23.5202 40.0588 23.5202 40.7861ZM21.8288 38.6579C21.8288 38.328 21.6032 38.1638 21.1519 38.1638H20.9601V39.1474H21.1381C21.5985 39.1474 21.8288 38.9832 21.8288 38.6579ZM22.1849 40.6864C22.1849 40.3212 21.9424 40.1386 21.4543 40.1386H20.9601V41.2219H21.3407C21.904 41.2219 22.1849 41.0439 22.1849 40.6864ZM27.3189 38.2728H26.2199V42.2331H24.9061V38.2728H23.8148V37.1542H27.3189V38.2728ZM32.9379 39.6936C32.9379 40.4608 32.6708 41.0991 32.1367 41.6055C31.6026 42.1134 30.9334 42.3666 30.1276 42.3666C29.3233 42.3666 28.6542 42.1134 28.1231 41.6055C27.5905 41.0991 27.325 40.4608 27.325 39.6936C27.325 38.9264 27.5905 38.2881 28.1231 37.7802C28.6542 37.2739 29.3233 37.0192 30.1276 37.0192C30.9334 37.0192 31.6026 37.2739 32.1367 37.7802C32.6708 38.2881 32.9379 38.9264 32.9379 39.6936ZM31.5627 39.6936C31.5627 39.3024 31.4245 38.9725 31.1483 38.7024C30.8705 38.4339 30.5328 38.2989 30.1276 38.2989C29.7255 38.2989 29.3878 38.4339 29.1131 38.7024C28.8368 38.9725 28.7002 39.3024 28.7002 39.6936C28.7002 40.0834 28.8368 40.4148 29.1131 40.6833C29.3878 40.9534 29.7255 41.0869 30.1276 41.0869C30.5328 41.0869 30.8705 40.9534 31.1483 40.6833C31.4245 40.4148 31.5627 40.0834 31.5627 39.6936ZM38.233 43.2626H37.0804V42.2331H34.2041V43.2626H33.0514V41.1206C33.3646 41.1206 33.5856 40.9442 33.713 40.5882C33.8112 40.3166 33.8603 39.9084 33.8603 39.3637V37.1542H37.7081V41.1206H38.233V43.2626ZM36.3928 41.1206V38.2651H35.0928V39.887C35.0928 40.5145 34.9332 40.9258 34.6154 41.1206H36.3928ZM41.6833 42.2331H38.7917V37.1542H41.6833V38.2728H40.1055V39.1213H41.602V40.246H40.1055V41.1145H41.6833V42.2331ZM45.6094 38.2728H44.5105V42.2331H43.1967V38.2728H42.1054V37.1542H45.6094V38.2728ZM50.722 42.2331H49.3068L48.9738 41.2633H47.0905L46.7606 42.2331H45.347L47.264 37.1542H48.8003L50.722 42.2331ZM48.633 40.2521L48.0345 38.4937L47.4313 40.2521H48.633ZM55.2359 42.2331H53.9159V38.2728H52.7218V40.3887C52.7218 40.9825 52.6405 41.4198 52.4763 41.7006C52.2384 42.0996 51.8025 42.3006 51.1671 42.3006C50.9476 42.3006 50.7588 42.2714 50.6007 42.2146L50.6667 41.0546C50.7956 41.1129 50.9291 41.1421 51.0642 41.1421C51.2085 41.1421 51.3067 41.0899 51.3574 40.9871C51.4142 40.869 51.4433 40.6327 51.4433 40.2798V37.1542H55.2359V42.2331ZM60 40.6388C60 41.3063 59.7222 41.7681 59.1681 42.0228C58.8673 42.1625 58.4974 42.2331 58.06 42.2331H56.1061V37.1542H57.4199V39.0538H58.0615C58.4851 39.0538 58.8565 39.129 59.1743 39.2809C59.7253 39.5402 60 39.9944 60 40.6388ZM58.6862 40.6373C58.6862 40.2414 58.4299 40.0435 57.9188 40.0435H57.4199V41.2219H57.9188C58.4299 41.2219 58.6862 41.027 58.6862 40.6373Z" fill="#064E8C"/>
</g>
</svg>
