<svg width="24" height="24" viewBox="0 0 24 24" fill="none" xmlns="http://www.w3.org/2000/svg">
<path d="M12 7.5H18.5M14 10.5H20.5M20.5 13.5H16M12 13.5H13M12 16H18.5M20 16H20.5M14 13.5H14.5M12 10.5H12.5M19.5 7.5H20M2 1H23V22L22 20.5L19.5 23L17 20.5L14.5 23L12 20.5L9.5 23L7 20.5L4.5 23L2.5 21L2 22V1Z" stroke="#00A0E3" stroke-width="0.8" stroke-linecap="round" stroke-linejoin="round"/>
<path d="M4.50763 12.73V13.39H3.5V14.42H4.50763V15.5H5.81756V14.42H8.14427V13.39H5.81756V12.73H7.26489C7.95191 12.73 8.49237 12.53 8.89542 12.14C9.29847 11.75 9.5 11.24 9.5 10.61C9.5 9.98 9.29847 9.48 8.89542 9.09C8.49237 8.7 7.95191 8.5 7.26489 8.5H4.50763V11.7H3.5V12.73H4.50763ZM5.81756 9.76H7.09084C7.75954 9.76 8.17176 10.1 8.17176 10.73C8.17176 11.34 7.75954 11.7 7.09084 11.7H5.81756V9.76Z" fill="#00A0E3"/>
</svg>
