<svg width="24" height="24" viewBox="0 0 24 24" fill="none" xmlns="http://www.w3.org/2000/svg">
<path d="M1.20312 6.45327V17.156L10.3491 22.41M1.20312 6.45327L10.3491 11.8046M1.20312 6.45327L6.16529 3.60267M10.3491 22.41V11.8046M10.3491 22.41L13.7796 20.4601M10.3491 11.8046L14.7274 9.26977M19.5923 6.45327L10.3491 1.19922L6.16529 3.60267M19.5923 6.45327L14.7274 9.26977M19.5923 6.45327V13.3579M6.16529 3.60267L14.7274 9.26977M14.7274 9.26977V11.8695M15.7977 17.7398L17.4518 19.6857L20.1761 16.0857M19.5923 13.3579C19.076 13.1712 18.519 13.0695 17.9383 13.0695C15.2515 13.0695 13.0734 15.2476 13.0734 17.9344C13.0734 18.8592 13.3315 19.7238 13.7796 20.4601M19.5923 13.3579C21.4649 14.0348 22.8031 15.8283 22.8031 17.9344C22.8031 20.6211 20.625 22.7992 17.9383 22.7992C16.1763 22.7992 14.6332 21.8626 13.7796 20.4601" stroke="#00A0E3" stroke-linecap="round"/>
</svg>
