<svg width="24" height="24" viewBox="0 0 24 24" fill="none" xmlns="http://www.w3.org/2000/svg">
<path d="M7.3564 13.3448H6.9564C6.9564 13.3592 6.95718 13.3737 6.95875 13.388L7.3564 13.3448ZM10.3887 14.2408C10.3887 14.0199 10.2096 13.8408 9.98866 13.8408C9.76775 13.8408 9.58866 14.0199 9.58866 14.2408H10.3887ZM10.8661 13.3448H10.4661C10.4661 13.4116 10.4828 13.4773 10.5147 13.5359L10.8661 13.3448ZM8.62235 7.87366C8.56981 7.65909 8.35328 7.52772 8.1387 7.58025C7.92413 7.63279 7.79276 7.84932 7.84529 8.0639L8.62235 7.87366ZM10.4274 9.76078L10.0388 9.8559C10.0776 10.0141 10.2084 10.1331 10.3696 10.1566L10.4274 9.76078ZM10.3772 7.87366C10.3247 7.65909 10.1081 7.52772 9.89354 7.58025C9.67896 7.63279 9.5476 7.84932 9.60013 8.0639L10.3772 7.87366ZM12.1822 7.96878V7.56878C11.9613 7.56878 11.7822 7.74787 11.7822 7.96878H12.1822ZM19.2016 7.96878H19.6016C19.6016 7.74787 19.4225 7.56878 19.2016 7.56878V7.96878ZM19.2016 11.1048V11.5048C19.4225 11.5048 19.6016 11.3257 19.6016 11.1048H19.2016ZM12.1822 10.0168L12.1245 10.4126L12.1822 10.0168ZM12.6117 10.0794L12.6695 9.68363L12.6117 10.0794ZM10.7034 18.0236L10.3685 18.2423L10.7034 18.0236ZM8.26196 22.152L8.62739 22.3146L8.26196 22.152ZM7.68537 17.6233L8.0508 17.786L7.68537 17.6233ZM9.90224 18.4669L9.53681 18.3043L9.90224 18.4669ZM12.8165 16.9298L12.4651 17.121L12.8165 16.9298ZM6.9564 7.03562V13.3448H7.7564V7.03562H6.9564ZM6.95875 13.388L7.36827 17.1518L8.16357 17.0652L7.75405 13.3015L6.95875 13.388ZM7.31994 17.4607L5.73284 21.0262L6.46371 21.3515L8.0508 17.786L7.31994 17.4607ZM8.62739 22.3146L10.2677 18.6296L9.53681 18.3043L7.89652 21.9893L8.62739 22.3146ZM10.3887 18.0603V16.9288H9.58866V18.0603H10.3887ZM10.3887 16.9288V14.2408H9.58866V16.9288H10.3887ZM9.65372 17.1474L10.3685 18.2423L11.0384 17.805L10.3236 16.7101L9.65372 17.1474ZM10.4661 18.5703V22.104H11.2661V18.5703H10.4661ZM13.4596 22.104V17.8856H12.6596V22.104H13.4596ZM13.1678 16.7387L11.2174 13.1536L10.5147 13.5359L12.4651 17.121L13.1678 16.7387ZM7.84529 8.0639L8.53611 10.8857L9.31317 10.6955L8.62235 7.87366L7.84529 8.0639ZM10.8159 9.66566L10.3772 7.87366L9.60013 8.0639L10.0388 9.8559L10.8159 9.66566ZM12.1822 8.36878H19.2016V7.56878H12.1822V8.36878ZM18.8016 7.96878V11.1048H19.6016V7.96878H18.8016ZM12.5822 10.0168V7.96878H11.7822V10.0168H12.5822ZM12.6695 9.68363L12.2399 9.62097L12.1245 10.4126L12.554 10.4753L12.6695 9.68363ZM19.2016 10.7048H13.4983V11.5048H19.2016V10.7048ZM9.89596 11.9528H10.8661V11.1528H9.89596V11.9528ZM10.8661 11.9528H13.0503V11.1528H10.8661V11.9528ZM11.2661 13.3448V11.5528H10.4661V13.3448H11.2661ZM11.2661 9.82478V7.03562H10.4661V9.82478H11.2661ZM12.2399 9.62097L10.9238 9.42897L10.8083 10.2206L12.1245 10.4126L12.2399 9.62097ZM10.9238 9.42897L10.4851 9.36497L10.3696 10.1566L10.8083 10.2206L10.9238 9.42897ZM11.3435 3.04078C11.3435 4.06493 10.5326 4.88078 9.54995 4.88078V5.68078C10.9902 5.68078 12.1435 4.49087 12.1435 3.04078H11.3435ZM9.54995 4.88078C8.56726 4.88078 7.7564 4.06493 7.7564 3.04078H6.9564C6.9564 4.49087 8.10971 5.68078 9.54995 5.68078V4.88078ZM7.7564 3.04078C7.7564 2.01663 8.56726 1.20078 9.54995 1.20078V0.400781C8.10971 0.400781 6.9564 1.59069 6.9564 3.04078H7.7564ZM9.54995 1.20078C10.5326 1.20078 11.3435 2.01663 11.3435 3.04078H12.1435C12.1435 1.59069 10.9902 0.400781 9.54995 0.400781V1.20078ZM12.554 10.4753C12.8666 10.5208 13.0983 10.7889 13.0983 11.1048H13.8983C13.8983 10.3917 13.3751 9.78657 12.6695 9.68363L12.554 10.4753ZM13.0983 11.1048C13.0983 11.1313 13.0768 11.1528 13.0503 11.1528V11.9528C13.5187 11.9528 13.8983 11.5731 13.8983 11.1048H13.0983ZM11.9629 23.6008C12.7895 23.6008 13.4596 22.9307 13.4596 22.104H12.6596C12.6596 22.4888 12.3477 22.8008 11.9629 22.8008V23.6008ZM10.4661 22.104C10.4661 22.9307 11.1362 23.6008 11.9629 23.6008V22.8008C11.578 22.8008 11.2661 22.4888 11.2661 22.104H10.4661ZM10.3685 18.2423C10.4322 18.3399 10.4661 18.4538 10.4661 18.5703H11.2661C11.2661 18.2985 11.187 18.0326 11.0384 17.805L10.3685 18.2423ZM8.53611 10.8857C8.68948 11.5122 9.25099 11.9528 9.89596 11.9528V11.1528C9.61954 11.1528 9.3789 10.9639 9.31317 10.6955L8.53611 10.8857ZM6.58108 23.137C7.37333 23.4606 8.27938 23.0965 8.62739 22.3146L7.89652 21.9893C7.72426 22.3763 7.27576 22.5566 6.88359 22.3964L6.58108 23.137ZM5.73284 21.0262C5.36923 21.8431 5.75331 22.7988 6.58108 23.137L6.88359 22.3964C6.47384 22.229 6.28372 21.7559 6.46371 21.3515L5.73284 21.0262ZM9.11124 5.68078C9.8595 5.68078 10.4661 6.28736 10.4661 7.03562H11.2661C11.2661 5.84553 10.3013 4.88078 9.11124 4.88078V5.68078ZM7.36827 17.1518C7.37974 17.2572 7.36306 17.3638 7.31994 17.4607L8.0508 17.786C8.15143 17.5599 8.19034 17.3112 8.16357 17.0652L7.36827 17.1518ZM10.2677 18.6296C10.3474 18.4504 10.3887 18.2564 10.3887 18.0603H9.58866C9.58866 18.1443 9.57099 18.2275 9.53681 18.3043L10.2677 18.6296ZM13.4596 17.8856C13.4596 17.4849 13.3593 17.0906 13.1678 16.7387L12.4651 17.121C12.5928 17.3556 12.6596 17.6185 12.6596 17.8856H13.4596ZM7.7564 7.03562C7.7564 6.28736 8.36298 5.68078 9.11124 5.68078V4.88078C7.92116 4.88078 6.9564 5.84553 6.9564 7.03562H7.7564Z" fill="#00A0E3"/>
</svg>
