<svg width="498" height="451" viewBox="0 0 498 451" fill="none" xmlns="http://www.w3.org/2000/svg">
<path opacity="0.1" d="M153.376 446.578L420.365 4.42155H345.255L78.2662 446.578H153.376ZM32.1901 31.5826C10.73 52.4272 0 78.9566 0 109.908C0 140.859 10.73 167.388 32.1901 188.232C53.6502 209.077 80.7909 219.815 114.243 219.815C147.696 219.815 174.837 209.077 196.297 188.232C217.757 167.388 228.487 140.859 228.487 109.908C228.487 78.9566 217.757 52.4272 196.297 31.5826C174.837 10.7381 147.696 0 114.243 0C80.7909 0 53.6502 10.7381 32.1901 31.5826ZM85.2091 140.859C70.0608 123.804 70.0608 95.3795 85.2091 79.5882C100.357 62.5336 128.129 62.5336 143.278 79.5882C158.426 95.3795 158.426 123.804 143.278 140.859C128.129 156.65 100.357 156.65 85.2091 140.859ZM301.703 262.768C280.243 283.612 269.513 310.141 269.513 341.092C269.513 372.043 280.243 398.573 301.703 419.417C323.163 440.262 350.304 451 383.757 451C417.209 451 444.35 440.262 465.81 419.417C487.27 398.573 498 372.043 498 341.092C498 310.141 487.27 283.612 465.81 262.768C444.35 241.923 417.209 231.185 383.757 231.185C350.304 231.185 323.163 241.923 301.703 262.768ZM354.722 372.043C339.574 354.989 339.574 326.564 354.722 310.773C369.871 293.718 397.643 293.718 412.791 310.773C427.939 326.564 427.939 354.989 412.791 372.043C397.643 387.835 369.871 387.835 354.722 372.043Z" fill="#00A0E3"/>
</svg>
