<svg width="499" height="451" viewBox="0 0 499 451" fill="none" xmlns="http://www.w3.org/2000/svg">
<g opacity="0.1">
<path d="M347 5H422L154 446H79L347 5Z" fill="#00A0E3"/>
<path fill-rule="evenodd" clip-rule="evenodd" d="M115.5 221C179.289 221 231 171.527 231 110.5C231 49.4727 179.289 0 115.5 0C51.7109 0 0 49.4727 0 110.5C0 171.527 51.7109 221 115.5 221ZM116 154C138.645 154 157 134.524 157 110.5C157 86.4756 138.645 67 116 67C93.3555 67 75 86.4756 75 110.5C75 134.524 93.3555 154 116 154Z" fill="#00A0E3"/>
<path fill-rule="evenodd" clip-rule="evenodd" d="M383.5 451C447.289 451 499 401.527 499 340.5C499 279.473 447.289 230 383.5 230C319.711 230 268 279.473 268 340.5C268 401.527 319.711 451 383.5 451ZM384 384C406.644 384 425 364.524 425 340.5C425 316.476 406.644 297 384 297C361.356 297 343 316.476 343 340.5C343 364.524 361.356 384 384 384Z" fill="#00A0E3"/>
</g>
</svg>
