<svg width="498" height="451" viewBox="0 0 498 451" fill="none" xmlns="http://www.w3.org/2000/svg">
<path opacity="0.1" d="M153.403 446.633L420.346 4.42738H345.238L78.245 446.633H153.403ZM32.1478 31.584C10.7326 52.4358 0 78.9699 0 109.921C0 140.873 10.7326 167.407 32.1879 188.229C53.6431 209.05 80.7904 219.813 114.241 219.813C147.691 219.813 174.829 209.071 196.284 188.229C217.739 167.387 228.482 140.843 228.482 109.921C228.482 79.0001 217.749 52.4358 196.284 31.6141C174.819 10.7924 147.691 0 114.241 0C80.7904 0 53.6531 10.7422 32.1478 31.584ZM85.2598 140.873C70.1078 123.806 70.1078 95.3944 85.2598 79.6325C100.402 62.5655 128.17 62.5655 143.322 79.6325C158.474 95.4245 158.474 123.806 143.322 140.873C128.12 156.695 100.352 156.695 85.2598 140.873ZM301.716 262.801C280.251 283.643 269.518 310.177 269.518 341.109C269.518 372.04 280.251 398.604 301.716 419.416C323.181 440.228 350.309 451 383.759 451C417.21 451 444.347 440.268 465.812 419.416C487.277 398.564 498 372.04 498 341.109C498 310.177 487.267 283.623 465.812 262.801C444.357 241.98 417.21 231.217 383.759 231.217C350.309 231.217 323.151 241.95 301.716 262.801ZM354.728 372.09C339.576 355.023 339.576 326.602 354.728 310.85C369.87 293.783 397.648 293.783 412.79 310.85C427.942 326.642 427.942 355.074 412.79 372.09C397.628 387.882 369.88 387.882 354.728 372.09Z" fill="#00A0E3"/>
</svg>
