<svg width="25" height="24" viewBox="0 0 25 24" fill="none" xmlns="http://www.w3.org/2000/svg">
<path d="M5.57278 21.4599L6.02 21.2363L6.02 21.2363L5.57278 21.4599ZM19.427 21.4599L19.8742 21.6836L19.8742 21.6836L19.427 21.4599ZM6.58544 8.9998C6.44337 9.23659 6.52015 9.54372 6.75694 9.68579C6.99373 9.82787 7.30086 9.75108 7.44293 9.51429L6.58544 8.9998ZM11.5572 2.65715C11.6993 2.42036 11.6225 2.11323 11.3857 1.97116C11.1489 1.82908 10.8418 1.90586 10.6997 2.14265L11.5572 2.65715ZM14.3001 2.14265C14.158 1.90586 13.8509 1.82908 13.6141 1.97116C13.3773 2.11323 13.3005 2.42036 13.4426 2.65715L14.3001 2.14265ZM17.5569 9.51429C17.6989 9.75108 18.0061 9.82787 18.2429 9.68579C18.4797 9.54372 18.5564 9.23659 18.4144 8.9998L17.5569 9.51429ZM3.17857 9.75705H21.8212V8.75705H3.17857V9.75705ZM21.5999 9.53571V10.1374H22.5999V9.53571H21.5999ZM19.2006 21.0999H5.79923V22.0999H19.2006V21.0999ZM3.3999 10.1374V9.53571H2.3999V10.1374H3.3999ZM6.02 21.2363C4.29695 17.7902 3.3999 13.9903 3.3999 10.1374H2.3999C2.3999 14.1455 3.33309 18.0986 5.12557 21.6836L6.02 21.2363ZM5.79923 21.0999C5.89272 21.0999 5.97819 21.1527 6.02 21.2363L5.12557 21.6836C5.25315 21.9387 5.51395 22.0999 5.79923 22.0999V21.0999ZM18.9798 21.2363C19.0216 21.1527 19.1071 21.0999 19.2006 21.0999V22.0999C19.4859 22.0999 19.7467 21.9387 19.8742 21.6836L18.9798 21.2363ZM21.5999 10.1374C21.5999 13.9903 20.7029 17.7902 18.9798 21.2363L19.8742 21.6836C21.6667 18.0986 22.5999 14.1455 22.5999 10.1374H21.5999ZM21.8212 9.75705C21.699 9.75705 21.5999 9.65795 21.5999 9.53571H22.5999C22.5999 9.10567 22.2513 8.75705 21.8212 8.75705V9.75705ZM3.17857 8.75705C2.74852 8.75705 2.3999 9.10567 2.3999 9.53571H3.3999C3.3999 9.65795 3.30081 9.75705 3.17857 9.75705V8.75705ZM7.44293 9.51429L11.5572 2.65715L10.6997 2.14265L6.58544 8.9998L7.44293 9.51429ZM13.4426 2.65715L17.5569 9.51429L18.4144 8.9998L14.3001 2.14265L13.4426 2.65715Z" fill="#064E8C"/>
</svg>
