<svg width="30" height="30" viewBox="0 0 30 30" fill="none" xmlns="http://www.w3.org/2000/svg">
<path d="M1.5 8.06757V21.4459L12.9324 28.0135M1.5 8.06757L12.9324 14.7568M1.5 8.06757L7.7027 4.50431M12.9324 28.0135V14.7568M12.9324 28.0135L17.2206 25.576M12.9324 14.7568L18.4054 11.5882M24.4865 8.06757L12.9324 1.5L7.7027 4.50431M24.4865 8.06757L18.4054 11.5882M24.4865 8.06757V16.6984M7.7027 4.50431L18.4054 11.5882M18.4054 11.5882V14.8378M19.7432 22.1757L21.8108 24.6081L25.2162 20.1081M24.4865 16.6984C23.841 16.465 23.1448 16.3378 22.4189 16.3378C19.0604 16.3378 16.3378 19.0604 16.3378 22.4189C16.3378 23.575 16.6604 24.6558 17.2206 25.576M24.4865 16.6984C26.8272 17.5445 28.5 19.7863 28.5 22.4189C28.5 25.7774 25.7774 28.5 22.4189 28.5C20.2165 28.5 18.2876 27.3292 17.2206 25.576" stroke="#00A0E3" stroke-linecap="round"/>
</svg>
