<svg width="50" height="50" viewBox="0 0 50 50" fill="none" xmlns="http://www.w3.org/2000/svg">
<path d="M34 1L34.7526 0.341495L34.4538 0H34V1ZM44.5 13H45.5V12.6243L45.2526 12.3415L44.5 13ZM5 3V47H7V3H5ZM8 50H42.5V48H8V50ZM45.2526 12.3415L34.7526 0.341495L33.2474 1.6585L43.7474 13.6585L45.2526 12.3415ZM34 0H31V2H34V0ZM31 0H8V2H31V0ZM30 1V12.5H32V1H30ZM45.5 47V14.5H43.5V47H45.5ZM45.5 14.5V13H43.5V14.5H45.5ZM33 15.5H44.5V13.5H33V15.5ZM42.5 50C44.1569 50 45.5 48.6569 45.5 47H43.5C43.5 47.5523 43.0523 48 42.5 48V50ZM5 47C5 48.6569 6.34315 50 8 50V48C7.44772 48 7 47.5523 7 47H5ZM30 12.5C30 14.1569 31.3431 15.5 33 15.5V13.5C32.4477 13.5 32 13.0523 32 12.5H30ZM7 3C7 2.44772 7.44772 2 8 2V0C6.34315 0 5 1.34315 5 3H7Z" fill="#00A0E3"/>
<path d="M15.4714 39V35.532H17.7634C18.6394 35.532 19.3234 35.304 19.8154 34.836C20.3194 34.368 20.5714 33.768 20.5714 33.036C20.5714 32.316 20.3194 31.728 19.8154 31.284C19.3234 30.828 18.6394 30.6 17.7634 30.6H14.1514V39H15.4714ZM15.4714 31.812H17.6554C18.6514 31.812 19.2394 32.256 19.2394 33.06C19.2394 33.864 18.6514 34.32 17.6554 34.32H15.4714V31.812ZM25.0607 39C26.4167 39 27.5087 38.616 28.3607 37.836C29.2127 37.056 29.6447 36.036 29.6447 34.8C29.6447 33.564 29.2127 32.556 28.3607 31.776C27.5087 30.996 26.4167 30.6 25.0607 30.6H22.0967V39H25.0607ZM23.4167 31.812H24.9407C25.9847 31.812 26.8127 32.076 27.4007 32.616C27.9887 33.156 28.2887 33.876 28.2887 34.8C28.2887 35.724 27.9887 36.444 27.4007 36.984C26.8127 37.524 25.9847 37.788 24.9407 37.788H23.4167V31.812ZM32.7566 39V35.22H36.4406V34.008H32.7566V31.812H37.4006V30.6H31.4366V39H32.7566Z" fill="#00A0E3"/>
</svg>
