<svg width="30" height="30" viewBox="0 0 30 30" fill="none" xmlns="http://www.w3.org/2000/svg">
<path d="M20.2329 20.6747V16.8322M20.2329 20.6747H11.4976M20.2329 20.6747H21.5137M20.2329 9.4863V7H3V16.8322M20.2329 9.4863H25.3562L28.5 13.5548V20.6747H27.1004M20.2329 9.4863V16.8322M3 16.8322V20.6747H5.91334M3 16.8322H20.2329M5.91334 20.6747C5.91176 20.7121 5.91096 20.7498 5.91096 20.7877C5.91096 22.2856 7.16211 23.5 8.70548 23.5C10.2489 23.5 11.5 22.2856 11.5 20.7877C11.5 20.7498 11.4992 20.7121 11.4976 20.6747M5.91334 20.6747C5.97439 19.2291 7.20111 18.0753 8.70548 18.0753C10.2098 18.0753 11.4366 19.2291 11.4976 20.6747M27.1004 20.6747C27.0393 19.2291 25.8126 18.0753 24.3082 18.0753C22.7649 18.0753 21.5137 19.2897 21.5137 20.7877C21.5137 22.2856 22.7649 23.5 24.3082 23.5C25.8516 23.5 27.1027 22.2856 27.1027 20.7877C27.1027 20.7498 27.1019 20.7121 27.1004 20.6747ZM22.2123 11.6336V15.589H26.4041V13.5548L24.774 11.6336H22.2123ZM9.86986 20.7877C9.86986 21.4118 9.34855 21.9178 8.70548 21.9178C8.06241 21.9178 7.5411 21.4118 7.5411 20.7877C7.5411 20.1635 8.06241 19.6575 8.70548 19.6575C9.34855 19.6575 9.86986 20.1635 9.86986 20.7877ZM25.4726 20.7877C25.4726 21.4118 24.9513 21.9178 24.3082 21.9178C23.6652 21.9178 23.1438 21.4118 23.1438 20.7877C23.1438 20.1635 23.6652 19.6575 24.3082 19.6575C24.9513 19.6575 25.4726 20.1635 25.4726 20.7877Z" stroke="#00A0E3"/>
</svg>
