<svg width="110" height="95" viewBox="0 0 110 95" fill="none" xmlns="http://www.w3.org/2000/svg">
<path opacity="0.4" fill-rule="evenodd" clip-rule="evenodd" d="M47.6284 3.63672C47.6284 2.53215 48.5239 1.63672 49.6284 1.63672H79.5811C80.6857 1.63672 81.5811 2.53215 81.5811 3.63672V10.6367C81.5811 11.7413 80.6857 12.6367 79.5811 12.6367H69.8651V15.9308H90.8723C92.5963 15.9308 94.544 16.2043 96.1053 17.4173C97.7186 18.6709 99.6876 20.9116 99.6876 24.3426C99.6876 27.7737 97.7186 30.0143 96.1053 31.2679C94.544 32.481 92.5963 32.7544 90.8723 32.7544H83.7113V36.5779H98.9889L105.438 40.852C106.835 41.7782 107.676 43.3432 107.676 45.0198V71.1189C107.676 72.6429 106.981 74.0836 105.788 75.0322L99.0368 80.4014H90.1018V87.3217L82.4973 92.8655C81.506 93.5882 80.1136 92.8802 80.1136 91.6535V80.4014H76.2557V87.3217L68.6511 92.8655C67.6599 93.5882 66.2675 92.8802 66.2675 91.6535V80.4014H62.4095V87.3217L54.805 92.8655C53.8137 93.5882 52.4213 92.8802 52.4213 91.6535V80.4014H48.5634V87.3217L40.9588 92.8655C39.9676 93.5882 38.5752 92.8802 38.5752 91.6535V80.4014H34.0545C31.8453 80.4014 30.0545 78.6106 30.0545 76.4014V65.0485H26.1965V73.1073C26.1965 74.2119 25.3011 75.1073 24.1965 75.1073H17.6758C16.5712 75.1073 15.6758 74.2119 15.6758 73.1073V43.872C15.6758 42.7674 16.5712 41.872 17.6758 41.872H24.1965C25.3011 41.872 26.1965 42.7674 26.1965 43.872V52.9897H30.0545V40.5779C30.0545 38.3688 31.8453 36.5779 34.0545 36.5779H45.4983V32.7544H37.7028C36.4609 32.7544 34.9191 32.6741 33.6198 31.8165C31.9864 30.7385 30.0545 28.5333 30.0545 24.3426C30.0545 20.1519 31.9864 17.9467 33.6198 16.8687C34.9191 16.0111 36.4609 15.9308 37.7028 15.9308H59.3444V12.6367H49.6284C48.5239 12.6367 47.6284 11.7413 47.6284 10.6367V3.63672ZM61.3444 12.6367V15.9308H67.8651V12.6367H61.3444ZM47.4983 32.7544V36.5779H81.7113V32.7544H47.4983ZM30.0545 54.9897H26.1965V63.0485H30.0545V54.9897ZM38.5752 78.4014V61.9308H39.5752C38.5752 61.9308 38.5752 61.9303 38.5752 61.9297L38.5752 61.9286L38.5752 61.9259L38.5752 61.9196L38.5755 61.9028C38.5757 61.8898 38.5761 61.8733 38.5768 61.8533C38.5782 61.8135 38.5809 61.76 38.5859 61.6948C38.5959 61.5649 38.6154 61.3863 38.6533 61.175C38.7285 60.7567 38.8805 60.1855 39.1941 59.6035C39.5106 59.0162 39.9968 58.4096 40.7341 57.9536C41.4742 57.4958 42.4104 57.225 43.5693 57.225C44.7281 57.225 45.6643 57.4958 46.4044 57.9536C47.1417 58.4096 47.6279 59.0162 47.9444 59.6035C48.258 60.1855 48.4101 60.7567 48.4852 61.175C48.5232 61.3863 48.5426 61.5649 48.5526 61.6948C48.5576 61.76 48.5603 61.8135 48.5617 61.8533C48.5625 61.8733 48.5629 61.8898 48.5631 61.9028L48.5633 61.9196L48.5633 61.9259L48.5634 61.9286V61.9297C48.5634 61.9303 48.5634 61.9308 47.5634 61.9308H48.5634V78.4014H52.4213V61.9308H53.4213C52.4213 61.9308 52.4213 61.9303 52.4213 61.9297V61.9286L52.4214 61.9259L52.4214 61.9196L52.4216 61.9028C52.4218 61.8898 52.4222 61.8733 52.423 61.8533C52.4244 61.8135 52.4271 61.76 52.4321 61.6948C52.4421 61.5649 52.4615 61.3863 52.4995 61.175C52.5746 60.7567 52.7267 60.1855 53.0403 59.6035C53.3568 59.0162 53.843 58.4096 54.5803 57.9536C55.3204 57.4958 56.2566 57.225 57.4154 57.225C58.5743 57.225 59.5105 57.4958 60.2506 57.9536C60.9879 58.4096 61.4741 59.0162 61.7906 59.6035C62.1042 60.1855 62.2562 60.7567 62.3313 61.175C62.3693 61.3863 62.3888 61.5649 62.3988 61.6948C62.4038 61.76 62.4065 61.8135 62.4079 61.8533C62.4086 61.8733 62.409 61.8898 62.4092 61.9028L62.4095 61.9196L62.4095 61.9259L62.4095 61.9286V61.9297C62.4095 61.9303 62.4095 61.9308 61.4095 61.9308H62.4095V78.4014H66.2675V61.9308H67.2675C66.2675 61.9308 66.2675 61.9303 66.2675 61.9297V61.9286L66.2675 61.9259L66.2675 61.9196L66.2678 61.9028C66.268 61.8898 66.2684 61.8733 66.2691 61.8533C66.2705 61.8135 66.2732 61.76 66.2782 61.6948C66.2883 61.5649 66.3077 61.3863 66.3457 61.175C66.4208 60.7567 66.5728 60.1855 66.8864 59.6035C67.2029 59.0162 67.6891 58.4096 68.4264 57.9536C69.1665 57.4958 70.1027 57.225 71.2616 57.225C72.4204 57.225 73.3566 57.4958 74.0967 57.9536C74.834 58.4096 75.3202 59.0162 75.6367 59.6035C75.9503 60.1855 76.1024 60.7567 76.1775 61.175C76.2155 61.3863 76.2349 61.5649 76.2449 61.6948C76.2499 61.76 76.2526 61.8135 76.254 61.8533C76.2548 61.8733 76.2552 61.8898 76.2554 61.9028L76.2556 61.9196L76.2557 61.9259L76.2557 61.9286V61.9297C76.2557 61.9303 76.2557 61.9308 75.2557 61.9308H76.2557V78.4014H80.1136V61.9308H81.1136C80.1136 61.9308 80.1136 61.9303 80.1136 61.9297V61.9286L80.1137 61.9259L80.1137 61.9196L80.1139 61.9028C80.1142 61.8898 80.1145 61.8733 80.1153 61.8533C80.1167 61.8135 80.1194 61.76 80.1244 61.6948C80.1344 61.5649 80.1539 61.3863 80.1918 61.175C80.267 60.7567 80.419 60.1855 80.7326 59.6035C81.0491 59.0162 81.5353 58.4096 82.2726 57.9536C83.0127 57.4958 83.9489 57.225 85.1077 57.225C86.2666 57.225 87.2028 57.4958 87.9429 57.9536C88.6802 58.4096 89.1664 59.0162 89.4829 59.6035C89.7965 60.1855 89.9485 60.7567 90.0237 61.175C90.0616 61.3863 90.0811 61.5649 90.0911 61.6948C90.0961 61.76 90.0988 61.8135 90.1002 61.8533C90.1009 61.8733 90.1013 61.8898 90.1015 61.9028L90.1018 61.9196L90.1018 61.9259L90.1018 61.9286V61.9297C90.1018 61.9303 90.1018 61.9308 89.1018 61.9308H90.1018V78.4014H97.6876V48.6367H32.0545V76.4014C32.0545 77.506 32.9499 78.4014 34.0545 78.4014H38.5752ZM32.0545 46.6367H97.6876V38.5779H34.0545C32.9499 38.5779 32.0545 39.4733 32.0545 40.5779V46.6367ZM99.6876 39.4403L104.333 42.5191C105.172 43.0748 105.676 44.0138 105.676 45.0198V71.1189C105.676 72.0333 105.259 72.8977 104.543 73.4669L99.6876 77.3284V39.4403ZM56.1492 3.63672H49.6284V10.6367H56.1492V3.63672ZM58.1492 3.63672V10.6367H63.6048V3.63672H58.1492ZM65.6048 3.63672V10.6367H71.5929V3.63672H65.6048ZM73.5929 3.63672V10.6367L79.5811 10.6367L79.5811 3.63672H73.5929ZM37.7028 17.9308C36.4782 17.9308 35.4807 18.0368 34.7215 18.5379C33.5907 19.2842 32.0545 20.8907 32.0545 24.3426C32.0545 27.7945 33.5907 29.401 34.7215 30.1473C35.4807 30.6484 36.4782 30.7544 37.7028 30.7544H90.8723C92.4382 30.7544 93.8415 30.4941 94.8782 29.6886C96.2307 28.6376 97.6876 26.9167 97.6876 24.3426C97.6876 21.7685 96.2307 20.0476 94.8782 18.9966C93.8415 18.1911 92.4382 17.9308 90.8723 17.9308H37.7028ZM41.1728 22.6955C39.9548 22.6955 38.9776 23.6755 38.9776 24.872C38.9776 26.0685 39.9548 27.0485 41.1728 27.0485C42.3908 27.0485 43.3681 26.0685 43.3681 24.872C43.3681 23.6755 42.3908 22.6955 41.1728 22.6955ZM36.9776 24.872C36.9776 22.5599 38.8614 20.6955 41.1728 20.6955C43.4842 20.6955 45.3681 22.5599 45.3681 24.872C45.3681 27.1842 43.4842 29.0485 41.1728 29.0485C38.8614 29.0485 36.9776 27.1842 36.9776 24.872ZM64.6048 22.6955C63.3868 22.6955 62.4095 23.6755 62.4095 24.872C62.4095 26.0685 63.3868 27.0485 64.6048 27.0485C65.8228 27.0485 66.8 26.0685 66.8 24.872C66.8 23.6755 65.8228 22.6955 64.6048 22.6955ZM60.4095 24.872C60.4095 22.5599 62.2934 20.6955 64.6048 20.6955C66.9162 20.6955 68.8 22.5599 68.8 24.872C68.8 27.1842 66.9162 29.0485 64.6048 29.0485C62.2934 29.0485 60.4095 27.1842 60.4095 24.872ZM89.1018 22.6955C87.8838 22.6955 86.9065 23.6755 86.9065 24.872C86.9065 26.0685 87.8838 27.0485 89.1018 27.0485C90.3198 27.0485 91.2971 26.0685 91.2971 24.872C91.2971 23.6755 90.3198 22.6955 89.1018 22.6955ZM84.9065 24.872C84.9065 22.5599 86.7904 20.6955 89.1018 20.6955C91.4132 20.6955 93.2971 22.5599 93.2971 24.872C93.2971 27.1842 91.4132 29.0485 89.1018 29.0485C86.7904 29.0485 84.9065 27.1842 84.9065 24.872ZM24.1965 43.872H17.6758V73.1073L24.1965 73.1073V43.872ZM40.5752 61.9366V90.6702L46.5634 86.3047V61.9365L46.563 61.9251C46.5627 61.9157 46.562 61.9011 46.5609 61.8821C46.5602 61.8721 46.5595 61.8608 46.5585 61.8484C46.5529 61.7757 46.5411 61.6647 46.5167 61.5286C46.467 61.252 46.3694 60.8968 46.1838 60.5523C46.001 60.2131 45.7383 59.8932 45.3523 59.6544C44.969 59.4174 44.4075 59.225 43.5693 59.225C42.7311 59.225 42.1695 59.4174 41.7862 59.6544C41.4002 59.8932 41.1375 60.2131 40.9548 60.5523C40.7691 60.8968 40.6715 61.252 40.6218 61.5286C40.5974 61.6647 40.5856 61.7757 40.58 61.8484C40.5773 61.8845 40.576 61.9107 40.5755 61.9251L40.5752 61.9366ZM54.4217 61.9251L54.4213 61.9365V90.6702L60.4095 86.3047V61.9365L60.4092 61.9251C60.4087 61.9107 60.4074 61.8845 60.4047 61.8484C60.3991 61.7757 60.3873 61.6647 60.3629 61.5286C60.3132 61.252 60.2156 60.8968 60.0299 60.5523C59.8472 60.2131 59.5845 59.8932 59.1984 59.6544C58.8152 59.4174 58.2536 59.225 57.4154 59.225C56.5772 59.225 56.0157 59.4174 55.6324 59.6544C55.2464 59.8932 54.9837 60.2131 54.8009 60.5523C54.6153 60.8968 54.5177 61.252 54.468 61.5286C54.4436 61.6647 54.4318 61.7757 54.4262 61.8484C54.4234 61.8845 54.4222 61.9107 54.4217 61.9251ZM68.2678 61.9251L68.2675 61.9365V90.6702L74.2557 86.3047V61.9365L74.2553 61.9251C74.2551 61.9184 74.2547 61.9091 74.2541 61.8975C74.2533 61.8841 74.2523 61.8677 74.2508 61.8484C74.2452 61.7757 74.2335 61.6647 74.209 61.5286C74.1593 61.252 74.0617 60.8968 73.8761 60.5523C73.6933 60.2131 73.4306 59.8932 73.0446 59.6544C72.6614 59.4174 72.0998 59.225 71.2616 59.225C70.4234 59.225 69.8618 59.4174 69.4786 59.6544C69.0925 59.8932 68.8298 60.2131 68.6471 60.5523C68.4614 60.8968 68.3638 61.252 68.3142 61.5286C68.2897 61.6647 68.2779 61.7757 68.2723 61.8484C68.2696 61.8845 68.2683 61.9107 68.2678 61.9251ZM82.114 61.9251L82.1136 61.9328L82.1136 61.9344L82.1136 61.9367L82.1136 90.6702L88.1018 86.3047V61.9365L88.1018 61.9344V61.9328L88.1015 61.9251C88.1012 61.9165 88.1006 61.9036 88.0996 61.8868C88.0989 61.8757 88.0981 61.8628 88.097 61.8484C88.0914 61.7757 88.0796 61.6647 88.0552 61.5286C88.0055 61.252 87.9079 60.8968 87.7222 60.5523C87.5395 60.2131 87.2768 59.8932 86.8908 59.6544C86.5075 59.4174 85.9459 59.225 85.1077 59.225C84.2695 59.225 83.708 59.4174 83.3247 59.6544C82.9387 59.8932 82.676 60.2131 82.4932 60.5523C82.3076 60.8968 82.21 61.252 82.1603 61.5286C82.1359 61.6647 82.1241 61.7757 82.1185 61.8484C82.1157 61.8845 82.1145 61.9107 82.114 61.9251Z" fill="#00A0E3"/>
</svg>
