<svg width="24" height="24" viewBox="0 0 24 24" fill="none" xmlns="http://www.w3.org/2000/svg">
<path d="M12.9514 10.376V10.8422H12.3672V11.2803H12.9514V12.0218H13.5692V11.2803H15.1027V10.8422H13.5692V10.376H14.5859C14.996 10.376 15.3161 10.2692 15.5464 10.0614C15.7823 9.85359 15.9003 9.57274 15.9003 9.2301C15.9003 8.89308 15.7823 8.61784 15.5464 8.41001C15.3161 8.19657 14.996 8.08984 14.5859 8.08984H12.9514V9.93784H12.3672V10.376H12.9514ZM13.5692 8.64593H14.5297C15.0016 8.64593 15.2824 8.88184 15.2824 9.29189C15.2824 9.69631 15.0016 9.93784 14.5297 9.93784H13.5692V8.64593Z" fill="#00A0E3"/>
<path d="M5.21277 7.34043V5H23V14.8298H20.6596M5.21277 7.34043V14.8298H20.6596M5.21277 7.34043H2.87234V9.21277M20.6596 14.8298V17.1702H18.3191M2.87234 9.21277V17.1702H18.3191M2.87234 9.21277H1V19.0426H18.3191V17.1702M8.02128 6.40426H20.1915C20.4281 7.19541 20.6774 7.56499 21.5957 7.80851V12.0213C20.6596 12.0213 20.1915 12.4894 20.1915 13.4255H8.02128C8.02128 12.4894 7.55319 12.0213 6.61702 12.0213V7.80851C7.40768 7.59012 7.77578 7.26469 8.02128 6.40426Z" stroke="#00A0E3" stroke-width="0.8" stroke-linecap="round" stroke-linejoin="round"/>
</svg>
